  0
SECTION
  2
HEADER
  9
$ACADVER
  1
AC1006
  9
$EXTMIN
 10
0.000000
 20
0.000000
 30
0.000000
  9
$EXTMAX
 10
315.000000
 20
157.000000
 30
0.000000
  0
ENDSEC
  0
SECTION
  2
ENTITIES
  0
POLYLINE
  8
0
 66
1
 70
1
  0
VERTEX
  8
0
 10
0.000000
 20
120.064924
 42
0.000000
  0
VERTEX
  8
0
 10
0.000000
 20
83.129848
 42
0.000000
  0
VERTEX
  8
0
 10
4.897504
 20
87.900166
 42
-0.057350
  0
VERTEX
  8
0
 10
12.892513
 20
94.075333
 42
-0.034631
  0
VERTEX
  8
0
 10
23.556244
 20
99.544043
 42
-0.033948
  0
VERTEX
  8
0
 10
35.241842
 20
103.635077
 42
-0.044449
  0
VERTEX
  8
0
 10
46.368339
 20
105.660322
 42
0.015399
  0
VERTEX
  8
0
 10
50.002828
 20
106.105962
 42
0.035572
  0
VERTEX
  8
0
 10
52.683712
 20
106.716491
 42
0.044652
  0
VERTEX
  8
0
 10
54.847881
 20
107.591633
 42
0.043765
  0
VERTEX
  8
0
 10
56.837842
 20
108.841994
 42
-0.017829
  0
VERTEX
  8
0
 10
58.721823
 20
110.166653
 42
-0.084556
  0
VERTEX
  8
0
 10
59.927673
 20
110.688533
 42
-0.130874
  0
VERTEX
  8
0
 10
60.965249
 20
110.667229
 42
-0.069473
  0
VERTEX
  8
0
 10
62.147576
 20
110.139910
 42
0.039593
  0
VERTEX
  8
0
 10
63.303668
 20
109.539355
 42
0.382246
  0
VERTEX
  8
0
 10
63.785148
 20
109.704413
 42
0.139982
  0
VERTEX
  8
0
 10
63.967417
 20
110.475335
 42
0.006902
  0
VERTEX
  8
0
 10
63.809735
 20
113.109205
 42
0.000000
  0
VERTEX
  8
0
 10
63.500000
 20
117.309969
 42
0.000000
  0
VERTEX
  8
0
 10
53.064026
 20
121.668301
 42
-0.008936
  0
VERTEX
  8
0
 10
45.311915
 20
125.069730
 42
-0.051678
  0
VERTEX
  8
0
 10
41.468345
 20
127.345638
 42
-0.113537
  0
VERTEX
  8
0
 10
39.659649
 20
129.463549
 42
-0.150343
  0
VERTEX
  8
0
 10
39.202667
 20
131.943076
 42
-0.061592
  0
VERTEX
  8
0
 10
39.508157
 20
133.195645
 42
-0.110612
  0
VERTEX
  8
0
 10
40.087561
 20
134.075053
 42
-0.098406
  0
VERTEX
  8
0
 10
41.039351
 20
134.687420
 42
-0.041645
  0
VERTEX
  8
0
 10
42.500000
 20
135.126938
 42
-0.043404
  0
VERTEX
  8
0
 10
46.807904
 20
135.656398
 42
-0.009238
  0
VERTEX
  8
0
 10
54.365587
 20
135.785360
 42
-0.010161
  0
VERTEX
  8
0
 10
62.154007
 20
135.616054
 42
-0.024782
  0
VERTEX
  8
0
 10
67.868447
 20
135.091081
 42
0.023670
  0
VERTEX
  8
0
 10
70.955276
 20
134.800582
 42
0.048675
  0
VERTEX
  8
0
 10
73.377107
 20
134.923647
 42
0.043507
  0
VERTEX
  8
0
 10
75.896106
 20
135.526761
 42
0.015527
  0
VERTEX
  8
0
 10
79.368447
 20
136.806131
 42
-0.022391
  0
VERTEX
  8
0
 10
82.834327
 20
138.029369
 42
-0.030728
  0
VERTEX
  8
0
 10
86.050261
 20
138.792805
 42
-0.027062
  0
VERTEX
  8
0
 10
89.632877
 20
139.215823
 42
-0.012784
  0
VERTEX
  8
0
 10
94.286054
 20
139.392046
 42
0.000000
  0
VERTEX
  8
0
 10
103.072107
 20
139.500000
 42
0.000000
  0
VERTEX
  8
0
 10
106.808564
 20
143.500000
 42
-0.008849
  0
VERTEX
  8
0
 10
108.618063
 20
145.369677
 42
-0.004182
  0
VERTEX
  8
0
 10
111.014781
 20
147.720312
 42
-0.004143
  0
VERTEX
  8
0
 10
113.564837
 20
150.139365
 42
-0.005840
  0
VERTEX
  8
0
 10
115.880664
 20
152.250000
 42
0.000000
  0
VERTEX
  8
0
 10
121.216307
 20
157.000000
 42
0.000000
  0
VERTEX
  8
0
 10
60.608154
 20
157.000000
 42
0.000000
  0
VERTEX
  8
0
 10
0.000000
 20
157.000000
 42
0.000000
  0
SEQEND
  0
POLYLINE
  8
0
 66
1
 70
1
  0
VERTEX
  8
0
 10
127.761372
 20
154.172518
 42
-0.113957
  0
VERTEX
  8
0
 10
127.502164
 20
150.987569
 42
-0.022146
  0
VERTEX
  8
0
 10
125.498311
 20
145.539063
 42
-0.022487
  0
VERTEX
  8
0
 10
122.531505
 20
139.264501
 42
-0.019103
  0
VERTEX
  8
0
 10
118.858955
 20
132.921721
 42
0.009639
  0
VERTEX
  8
0
 10
116.717634
 20
129.379805
 42
0.082281
  0
VERTEX
  8
0
 10
116.065833
 20
127.649727
 42
0.110900
  0
VERTEX
  8
0
 10
116.106512
 20
126.008936
 42
0.023448
  0
VERTEX
  8
0
 10
116.937544
 20
123.250000
 42
0.018962
  0
VERTEX
  8
0
 10
117.958697
 20
120.673770
 42
0.127049
  0
VERTEX
  8
0
 10
118.804765
 20
119.601541
 42
0.139074
  0
VERTEX
  8
0
 10
120.028878
 20
119.121628
 42
0.024319
  0
VERTEX
  8
0
 10
122.528036
 20
119.000000
 42
-0.046871
  0
VERTEX
  8
0
 10
125.819205
 20
118.690801
 42
-0.108501
  0
VERTEX
  8
0
 10
128.089495
 20
117.721548
 42
-0.129770
  0
VERTEX
  8
0
 10
129.499272
 20
116.023956
 42
-0.082689
  0
VERTEX
  8
0
 10
130.187783
 20
113.535568
 42
0.044596
  0
VERTEX
  8
0
 10
130.493884
 20
111.978131
 42
0.122353
  0
VERTEX
  8
0
 10
131.053156
 20
111.016337
 42
0.114312
  0
VERTEX
  8
0
 10
132.023420
 20
110.390357
 42
0.036323
  0
VERTEX
  8
0
 10
133.691271
 20
109.923878
 42
-0.046226
  0
VERTEX
  8
0
 10
135.138820
 20
109.487977
 42
-0.023529
  0
VERTEX
  8
0
 10
136.866146
 20
108.691749
 42
-0.023157
  0
VERTEX
  8
0
 10
138.584139
 20
107.695995
 42
-0.031989
  0
VERTEX
  8
0
 10
140.017996
 20
106.638311
 42
0.012617
  0
VERTEX
  8
0
 10
141.282206
 20
105.627910
 42
0.016598
  0
VERTEX
  8
0
 10
142.487453
 20
104.775004
 42
0.014097
  0
VERTEX
  8
0
 10
143.521264
 20
104.134802
 42
0.132332
  0
VERTEX
  8
0
 10
144.021677
 20
104.000000
 42
0.202459
  0
VERTEX
  8
0
 10
144.573414
 20
104.232957
 42
0.002706
  0
VERTEX
  8
0
 10
147.193452
 20
106.954765
 42
0.007207
  0
VERTEX
  8
0
 10
150.198730
 20
110.203284
 42
0.004611
  0
VERTEX
  8
0
 10
153.599997
 20
114.058774
 42
-0.015538
  0
VERTEX
  8
0
 10
159.869850
 20
120.860425
 42
-0.045311
  0
VERTEX
  8
0
 10
164.731125
 20
124.991949
 42
-0.066565
  0
VERTEX
  8
0
 10
169.029018
 20
127.234587
 42
-0.087221
  0
VERTEX
  8
0
 10
173.383437
 20
128.000000
 42
-0.108208
  0
VERTEX
  8
0
 10
176.876464
 20
127.235095
 42
-0.078354
  0
VERTEX
  8
0
 10
180.202602
 20
125.019873
 42
-0.049155
  0
VERTEX
  8
0
 10
183.876042
 20
120.903787
 42
-0.014759
  0
VERTEX
  8
0
 10
188.629949
 20
113.968235
 42
0.005376
  0
VERTEX
  8
0
 10
192.286910
 20
108.412314
 42
0.053455
  0
VERTEX
  8
0
 10
194.080665
 20
106.281337
 42
0.121452
  0
VERTEX
  8
0
 10
195.715557
 20
105.339647
 42
0.072838
  0
VERTEX
  8
0
 10
197.947843
 20
105.035435
 42
0.033153
  0
VERTEX
  8
0
 10
199.490775
 20
105.153325
 42
0.023726
  0
VERTEX
  8
0
 10
201.190929
 20
105.480268
 42
0.024085
  0
VERTEX
  8
0
 10
202.787730
 20
105.949110
 42
0.046425
  0
VERTEX
  8
0
 10
204.000000
 20
106.500000
 42
-0.083194
  0
VERTEX
  8
0
 10
205.831178
 20
107.175305
 42
-0.023013
  0
VERTEX
  8
0
 10
208.876348
 20
107.608424
 42
-0.017015
  0
VERTEX
  8
0
 10
213.182861
 20
107.872478
 42
-0.006112
  0
VERTEX
  8
0
 10
219.326923
 20
107.964565
 42
0.000000
  0
VERTEX
  8
0
 10
232.153846
 20
108.000000
 42
0.000000
  0
VERTEX
  8
0
 10
235.076923
 20
105.076923
 42
-0.032002
  0
VERTEX
  8
0
 10
236.195556
 20
103.805138
 42
-0.032112
  0
VERTEX
  8
0
 10
237.141346
 20
102.402404
 42
-0.033872
  0
VERTEX
  8
0
 10
237.800893
 20
101.075571
 42
-0.098717
  0
VERTEX
  8
0
 10
238.000000
 20
100.076923
 42
0.045484
  0
VERTEX
  8
0
 10
238.138889
 20
98.553304
 42
0.366447
  0
VERTEX
  8
0
 10
238.642537
 20
98.140595
 42
0.146903
  0
VERTEX
  8
0
 10
239.584185
 20
98.439885
 42
0.009295
  0
VERTEX
  8
0
 10
241.976340
 20
100.140628
 42
-0.110551
  0
VERTEX
  8
0
 10
246.651314
 20
102.208363
 42
-0.068766
  0
VERTEX
  8
0
 10
252.662436
 20
102.562879
 42
-0.032327
  0
VERTEX
  8
0
 10
262.136086
 20
101.198474
 42
-0.005007
  0
VERTEX
  8
0
 10
280.659103
 20
97.101415
 42
-0.002008
  0
VERTEX
  8
0
 10
290.874579
 20
94.691065
 42
-0.002872
  0
VERTEX
  8
0
 10
299.915174
 20
92.464567
 42
-0.001567
  0
VERTEX
  8
0
 10
307.539740
 20
90.514846
 42
-0.043538
  0
VERTEX
  8
0
 10
309.477626
 20
89.828240
 42
-0.049249
  0
VERTEX
  8
0
 10
310.597626
 20
89.178100
 42
-0.031294
  0
VERTEX
  8
0
 10
311.764577
 20
88.220978
 42
-0.031305
  0
VERTEX
  8
0
 10
312.802192
 20
87.126443
 42
-0.049533
  0
VERTEX
  8
0
 10
313.528486
 20
86.058264
 42
0.717905
  0
VERTEX
  8
0
 10
314.280401
 20
86.189376
 42
0.027766
  0
VERTEX
  8
0
 10
314.685033
 20
90.332293
 42
0.009205
  0
VERTEX
  8
0
 10
314.896045
 20
99.335826
 42
0.000983
  0
VERTEX
  8
0
 10
314.959962
 20
120.250000
 42
0.000000
  0
VERTEX
  8
0
 10
315.000000
 20
157.000000
 42
0.000000
  0
VERTEX
  8
0
 10
221.173193
 20
157.000000
 42
0.000000
  0
VERTEX
  8
0
 10
127.346386
 20
157.000000
 42
0.000000
  0
SEQEND
  0
POLYLINE
  8
0
 66
1
 70
1
  0
VERTEX
  8
0
 10
119.116928
 20
152.104393
 42
0.021252
  0
VERTEX
  8
0
 10
117.892329
 20
150.913797
 42
0.050435
  0
VERTEX
  8
0
 10
117.117831
 20
149.907986
 42
0.096658
  0
VERTEX
  8
0
 10
116.844887
 20
149.188727
 42
0.370426
  0
VERTEX
  8
0
 10
117.072084
 20
148.809305
 42
-0.306011
  0
VERTEX
  8
0
 10
118.205587
 20
147.333999
 42
-0.034420
  0
VERTEX
  8
0
 10
118.171711
 20
142.885798
 42
-0.038644
  0
VERTEX
  8
0
 10
117.441841
 20
138.173876
 42
-0.097267
  0
VERTEX
  8
0
 10
116.016363
 20
135.022980
 42
0.016697
  0
VERTEX
  8
0
 10
115.244438
 20
133.858499
 42
0.019420
  0
VERTEX
  8
0
 10
114.592307
 20
132.701236
 42
0.018782
  0
VERTEX
  8
0
 10
114.120245
 20
131.690032
 42
0.100133
  0
VERTEX
  8
0
 10
114.000000
 20
131.095630
 42
-0.090094
  0
VERTEX
  8
0
 10
113.924012
 20
130.677338
 42
-0.095386
  0
VERTEX
  8
0
 10
113.706250
 20
130.321841
 42
-0.099739
  0
VERTEX
  8
0
 10
113.381512
 20
130.083984
 42
-0.108766
  0
VERTEX
  8
0
 10
113.000000
 20
130.000000
 42
0.142091
  0
VERTEX
  8
0
 10
112.618660
 20
129.889397
 42
0.099719
  0
VERTEX
  8
0
 10
112.293750
 20
129.578498
 42
0.084528
  0
VERTEX
  8
0
 10
112.074871
 20
129.113566
 42
0.067940
  0
VERTEX
  8
0
 10
112.000000
 20
128.565100
 42
0.068665
  0
VERTEX
  8
0
 10
112.249465
 20
126.757138
 42
0.027670
  0
VERTEX
  8
0
 10
113.057832
 20
124.393701
 42
0.022515
  0
VERTEX
  8
0
 10
114.009025
 20
122.319158
 42
0.508364
  0
VERTEX
  8
0
 10
114.565419
 20
122.232086
 42
0.216512
  0
VERTEX
  8
0
 10
114.695420
 20
122.578560
 42
0.034133
  0
VERTEX
  8
0
 10
114.594459
 20
123.317849
 42
0.032661
  0
VERTEX
  8
0
 10
114.342961
 20
124.229182
 42
0.023245
  0
VERTEX
  8
0
 10
113.948863
 20
125.212888
 42
-0.079735
  0
VERTEX
  8
0
 10
113.516981
 20
126.783202
 42
-0.103655
  0
VERTEX
  8
0
 10
113.661571
 20
128.264365
 42
-0.056451
  0
VERTEX
  8
0
 10
114.504262
 20
130.168417
 42
-0.009912
  0
VERTEX
  8
0
 10
116.552000
 20
133.513835
 42
0.018633
  0
VERTEX
  8
0
 10
119.699786
 20
138.863732
 42
0.013140
  0
VERTEX
  8
0
 10
122.849435
 20
145.090524
 42
0.009550
  0
VERTEX
  8
0
 10
125.479075
 20
150.933189
 42
0.101298
  0
VERTEX
  8
0
 10
126.000000
 20
153.478043
 42
0.262439
  0
VERTEX
  8
0
 10
125.355294
 20
154.621740
 42
0.187443
  0
VERTEX
  8
0
 10
123.876167
 20
154.881134
 42
0.090681
  0
VERTEX
  8
0
 10
121.628102
 20
153.988830
 42
0.042552
  0
SEQEND
  0
POLYLINE
  8
0
 66
1
 70
1
  0
VERTEX
  8
0
 10
105.047973
 20
138.557804
 42
-0.085703
  0
VERTEX
  8
0
 10
104.366840
 20
137.975796
 42
-0.034458
  0
VERTEX
  8
0
 10
103.269840
 20
137.422409
 42
-0.032831
  0
VERTEX
  8
0
 10
101.979033
 20
136.976412
 42
-0.035622
  0
VERTEX
  8
0
 10
100.675529
 20
136.717841
 42
0.000000
  0
VERTEX
  8
0
 10
97.500000
 20
136.320074
 42
0.000000
  0
VERTEX
  8
0
 10
101.009453
 20
136.160037
 42
0.033173
  0
VERTEX
  8
0
 10
102.717684
 20
136.195489
 42
0.070590
  0
VERTEX
  8
0
 10
104.002362
 20
136.493603
 42
0.086457
  0
VERTEX
  8
0
 10
104.984932
 20
137.084521
 42
0.074793
  0
VERTEX
  8
0
 10
105.767927
 20
138.000000
 42
0.011286
  0
VERTEX
  8
0
 10
106.684282
 20
139.543807
 42
0.372051
  0
VERTEX
  8
0
 10
106.604925
 20
139.936783
 42
0.391118
  0
VERTEX
  8
0
 10
106.217783
 20
139.903219
 42
0.011486
  0
SEQEND
  0
POLYLINE
  8
0
 66
1
 70
1
  0
VERTEX
  8
0
 10
92.000000
 20
137.000000
 42
0.191087
  0
VERTEX
  8
0
 10
92.151477
 20
136.618118
 42
0.088204
  0
VERTEX
  8
0
 10
92.587500
 20
136.293750
 42
0.068025
  0
VERTEX
  8
0
 10
93.234582
 20
136.073693
 42
0.048028
  0
VERTEX
  8
0
 10
94.000000
 20
136.000000
 42
0.048028
  0
VERTEX
  8
0
 10
94.765418
 20
136.073693
 42
0.068025
  0
VERTEX
  8
0
 10
95.412500
 20
136.293750
 42
0.088204
  0
VERTEX
  8
0
 10
95.848523
 20
136.618118
 42
0.191087
  0
VERTEX
  8
0
 10
96.000000
 20
137.000000
 42
0.191087
  0
VERTEX
  8
0
 10
95.848523
 20
137.381882
 42
0.088204
  0
VERTEX
  8
0
 10
95.412500
 20
137.706250
 42
0.068025
  0
VERTEX
  8
0
 10
94.765418
 20
137.926307
 42
0.048028
  0
VERTEX
  8
0
 10
94.000000
 20
138.000000
 42
0.048028
  0
VERTEX
  8
0
 10
93.234582
 20
137.926307
 42
0.068025
  0
VERTEX
  8
0
 10
92.587500
 20
137.706250
 42
0.088204
  0
VERTEX
  8
0
 10
92.151477
 20
137.381882
 42
0.191087
  0
SEQEND
  0
POLYLINE
  8
0
 66
1
 70
1
  0
VERTEX
  8
0
 10
83.500000
 20
136.000000
 42
0.000000
  0
VERTEX
  8
0
 10
81.500000
 20
135.140571
 42
0.000000
  0
VERTEX
  8
0
 10
83.500000
 20
135.169965
 42
0.028396
  0
VERTEX
  8
0
 10
84.443924
 20
135.237546
 42
0.013539
  0
VERTEX
  8
0
 10
85.646875
 20
135.425913
 42
0.013373
  0
VERTEX
  8
0
 10
86.896657
 20
135.691179
 42
0.018514
  0
VERTEX
  8
0
 10
88.000000
 20
136.000000
 42
0.000000
  0
VERTEX
  8
0
 10
90.500000
 20
136.800640
 42
0.000000
  0
VERTEX
  8
0
 10
88.000000
 20
136.830035
 42
0.029063
  0
VERTEX
  8
0
 10
86.896882
 20
136.778867
 42
0.019488
  0
VERTEX
  8
0
 10
85.646875
 20
136.598337
 42
0.019656
  0
VERTEX
  8
0
 10
84.445813
 20
136.327600
 42
0.036226
  0
SEQEND
  0
POLYLINE
  8
0
 66
1
 70
1
  0
VERTEX
  8
0
 10
78.000000
 20
134.000000
 42
0.027796
  0
VERTEX
  8
0
 10
77.485814
 20
133.625641
 42
0.102785
  0
VERTEX
  8
0
 10
77.234375
 20
133.315379
 42
0.335455
  0
VERTEX
  8
0
 10
77.267727
 20
133.122372
 42
0.190341
  0
VERTEX
  8
0
 10
77.500000
 20
133.030626
 42
0.067616
  0
VERTEX
  8
0
 10
77.987337
 20
133.096832
 42
0.024967
  0
VERTEX
  8
0
 10
78.646875
 20
133.315379
 42
0.024204
  0
VERTEX
  8
0
 10
79.352293
 20
133.628962
 42
0.026766
  0
VERTEX
  8
0
 10
80.000000
 20
134.000000
 42
0.027796
  0
VERTEX
  8
0
 10
80.514186
 20
134.374359
 42
0.102785
  0
VERTEX
  8
0
 10
80.765625
 20
134.684621
 42
0.335455
  0
VERTEX
  8
0
 10
80.732273
 20
134.877628
 42
0.190341
  0
VERTEX
  8
0
 10
80.500000
 20
134.969374
 42
0.067616
  0
VERTEX
  8
0
 10
80.012663
 20
134.903168
 42
0.024967
  0
VERTEX
  8
0
 10
79.353125
 20
134.684621
 42
0.024204
  0
VERTEX
  8
0
 10
78.647707
 20
134.371038
 42
0.026766
  0
SEQEND
  0
POLYLINE
  8
0
 66
1
 70
1
  0
VERTEX
  8
0
 10
43.750000
 20
133.283746
 42
0.079583
  0
VERTEX
  8
0
 10
42.003689
 20
132.725941
 42
0.192667
  0
VERTEX
  8
0
 10
41.124171
 20
131.727424
 42
0.212648
  0
VERTEX
  8
0
 10
41.221500
 20
130.475769
 42
0.095644
  0
VERTEX
  8
0
 10
42.289713
 20
129.174523
 42
0.066368
  0
VERTEX
  8
0
 10
43.958739
 20
128.127703
 42
0.001968
  0
VERTEX
  8
0
 10
51.509731
 20
124.722035
 42
0.001355
  0
VERTEX
  8
0
 10
59.282946
 20
121.278129
 42
0.103959
  0
VERTEX
  8
0
 10
60.606174
 20
121.000000
 42
0.652601
  0
VERTEX
  8
0
 10
60.657257
 20
121.116134
 42
0.003722
  0
VERTEX
  8
0
 10
59.582083
 20
122.271521
 42
0.008012
  0
VERTEX
  8
0
 10
58.220082
 20
123.667943
 42
0.004453
  0
VERTEX
  8
0
 10
56.517559
 20
125.328583
 42
-0.018771
  0
VERTEX
  8
0
 10
54.787874
 20
127.115158
 42
-0.023417
  0
VERTEX
  8
0
 10
53.327033
 20
128.903810
 42
-0.022623
  0
VERTEX
  8
0
 10
52.263582
 20
130.482546
 42
-0.137750
  0
VERTEX
  8
0
 10
52.000000
 20
131.421133
 42
-0.150106
  0
VERTEX
  8
0
 10
52.273167
 20
132.310548
 42
-0.182480
  0
VERTEX
  8
0
 10
52.981138
 20
132.809414
 42
-0.069471
  0
VERTEX
  8
0
 10
54.432602
 20
132.975786
 42
-0.009398
  0
VERTEX
  8
0
 10
57.501363
 20
132.842550
 42
0.012758
  0
VERTEX
  8
0
 10
59.610578
 20
132.765168
 42
0.021279
  0
VERTEX
  8
0
 10
61.386301
 20
132.820936
 42
0.016868
  0
VERTEX
  8
0
 10
62.758182
 20
132.969232
 42
0.373894
  0
VERTEX
  8
0
 10
63.001363
 20
133.250000
 42
0.410004
  0
VERTEX
  8
0
 10
62.471768
 20
133.785323
 42
0.002706
  0
VERTEX
  8
0
 10
55.246382
 20
133.837087
 42
0.009500
  0
VERTEX
  8
0
 10
48.402133
 20
133.719032
 42
0.028532
  0
SEQEND
  0
POLYLINE
  8
0
 66
1
 70
1
  0
VERTEX
  8
0
 10
69.401439
 20
131.857206
 42
0.017399
  0
VERTEX
  8
0
 10
71.336029
 20
131.549954
 42
0.023836
  0
VERTEX
  8
0
 10
73.093825
 20
131.417789
 42
0.021910
  0
VERTEX
  8
0
 10
74.516254
 20
131.441161
 42
0.185430
  0
VERTEX
  8
0
 10
75.088394
 20
131.701439
 42
0.545043
  0
VERTEX
  8
0
 10
75.016893
 20
132.019841
 42
0.039907
  0
VERTEX
  8
0
 10
73.972622
 20
132.311179
 42
0.027669
  0
VERTEX
  8
0
 10
72.315249
 20
132.539626
 42
0.013567
  0
VERTEX
  8
0
 10
70.186955
 20
132.655767
 42
0.000000
  0
VERTEX
  8
0
 10
64.500000
 20
132.811534
 42
0.000000
  0
SEQEND
  0
POLYLINE
  8
0
 66
1
 70
1
  0
VERTEX
  8
0
 10
103.654988
 20
125.171259
 42
0.122838
  0
VERTEX
  8
0
 10
102.234303
 20
122.514867
 42
0.192868
  0
VERTEX
  8
0
 10
102.576686
 20
119.982689
 42
0.199079
  0
VERTEX
  8
0
 10
104.552718
 20
118.441715
 42
0.129519
  0
VERTEX
  8
0
 10
107.487014
 20
118.407385
 42
0.054195
  0
VERTEX
  8
0
 10
108.731487
 20
118.867570
 42
0.124595
  0
VERTEX
  8
0
 10
109.483201
 20
119.514196
 42
0.113214
  0
VERTEX
  8
0
 10
109.878600
 20
120.484296
 42
0.040412
  0
VERTEX
  8
0
 10
110.000000
 20
121.983868
 42
0.047624
  0
VERTEX
  8
0
 10
109.873948
 20
123.304274
 42
0.065577
  0
VERTEX
  8
0
 10
109.497990
 20
124.433768
 42
0.073401
  0
VERTEX
  8
0
 10
108.886403
 20
125.329979
 42
0.083703
  0
VERTEX
  8
0
 10
108.065741
 20
125.964816
 42
0.016276
  0
VERTEX
  8
0
 10
106.421538
 20
126.777076
 42
0.152237
  0
VERTEX
  8
0
 10
105.647052
 20
126.873720
 42
0.149804
  0
VERTEX
  8
0
 10
104.948982
 20
126.514363
 42
0.015608
  0
SEQEND
  0
POLYLINE
  8
0
 66
1
 70
1
  0
VERTEX
  8
0
 10
106.323543
 20
123.400758
 42
-0.057172
  0
VERTEX
  8
0
 10
106.008079
 20
122.795734
 42
-0.160337
  0
VERTEX
  8
0
 10
105.634705
 20
122.507162
 42
-0.194905
  0
VERTEX
  8
0
 10
105.213824
 20
122.526102
 42
-0.089096
  0
VERTEX
  8
0
 10
104.754350
 20
122.845650
 42
-0.166888
  0
VERTEX
  8
0
 10
104.289608
 20
123.796379
 42
-0.144201
  0
VERTEX
  8
0
 10
104.470109
 20
124.897456
 42
-0.184695
  0
VERTEX
  8
0
 10
105.165772
 20
125.554174
 42
-0.240722
  0
VERTEX
  8
0
 10
106.025424
 20
125.484287
 42
-0.140905
  0
VERTEX
  8
0
 10
106.320303
 20
125.159556
 42
-0.078956
  0
VERTEX
  8
0
 10
106.478978
 20
124.646061
 42
-0.068155
  0
VERTEX
  8
0
 10
106.482694
 20
124.028639
 42
-0.059150
  0
SEQEND
  0
POLYLINE
  8
0
 66
1
 70
1
  0
VERTEX
  8
0
 10
166.905746
 20
124.011817
 42
0.056597
  0
VERTEX
  8
0
 10
165.076299
 20
122.762075
 42
0.012855
  0
VERTEX
  8
0
 10
162.292789
 20
120.230198
 42
0.013150
  0
VERTEX
  8
0
 10
159.216778
 20
117.125132
 42
0.012441
  0
VERTEX
  8
0
 10
156.249312
 20
113.806013
 42
-0.003329
  0
VERTEX
  8
0
 10
153.357075
 20
110.449914
 42
-0.003648
  0
VERTEX
  8
0
 10
150.506717
 20
107.234259
 42
-0.003411
  0
VERTEX
  8
0
 10
148.030737
 20
104.519175
 42
-0.018238
  0
VERTEX
  8
0
 10
146.617155
 20
103.097847
 42
0.000000
  0
VERTEX
  8
0
 10
144.047179
 20
100.695694
 42
0.000000
  0
VERTEX
  8
0
 10
139.359480
 20
104.347847
 42
0.021084
  0
VERTEX
  8
0
 10
137.044674
 20
105.999361
 42
0.037615
  0
VERTEX
  8
0
 10
134.995657
 20
107.124991
 42
0.045559
  0
VERTEX
  8
0
 10
133.119731
 20
107.780344
 42
0.061337
  0
VERTEX
  8
0
 10
131.335890
 20
108.000000
 42
-0.031777
  0
VERTEX
  8
0
 10
129.990636
 20
108.085584
 42
-0.056223
  0
VERTEX
  8
0
 10
128.911615
 20
108.348945
 42
-0.077928
  0
VERTEX
  8
0
 10
128.191897
 20
108.748944
 42
-0.216234
  0
VERTEX
  8
0
 10
127.929715
 20
109.250000
 42
0.652699
  0
VERTEX
  8
0
 10
127.630306
 20
109.362044
 42
0.071118
  0
VERTEX
  8
0
 10
127.030914
 20
108.540556
 42
0.034348
  0
VERTEX
  8
0
 10
126.362160
 20
107.041730
 42
0.064481
  0
VERTEX
  8
0
 10
126.070285
 20
105.750000
 42
0.352854
  0
VERTEX
  8
0
 10
126.264144
 20
105.457305
 42
0.029967
  0
VERTEX
  8
0
 10
127.202210
 20
105.220313
 42
0.029333
  0
VERTEX
  8
0
 10
128.485282
 20
105.054009
 42
0.017563
  0
VERTEX
  8
0
 10
130.022343
 20
105.000000
 42
-0.042038
  0
VERTEX
  8
0
 10
132.283563
 20
104.809549
 42
-0.069646
  0
VERTEX
  8
0
 10
134.105604
 20
104.231677
 42
-0.056027
  0
VERTEX
  8
0
 10
135.954634
 20
103.077249
 42
-0.018664
  0
VERTEX
  8
0
 10
138.384174
 20
101.000000
 42
0.015707
  0
VERTEX
  8
0
 10
140.154308
 20
99.468331
 42
0.019975
  0
VERTEX
  8
0
 10
141.884352
 20
98.175000
 42
0.018346
  0
VERTEX
  8
0
 10
143.387329
 20
97.221549
 42
0.132931
  0
VERTEX
  8
0
 10
144.205926
 20
97.000000
 42
0.191753
  0
VERTEX
  8
0
 10
145.121233
 20
97.364426
 42
0.005246
  0
VERTEX
  8
0
 10
148.269891
 20
100.407244
 42
0.010127
  0
VERTEX
  8
0
 10
151.915757
 20
104.154038
 42
0.006687
  0
VERTEX
  8
0
 10
155.959223
 20
108.599130
 42
-0.012078
  0
VERTEX
  8
0
 10
162.927154
 20
116.095180
 42
-0.042634
  0
VERTEX
  8
0
 10
167.899124
 20
120.390580
 42
-0.072992
  0
VERTEX
  8
0
 10
171.789044
 20
122.423530
 42
-0.162197
  0
VERTEX
  8
0
 10
175.092491
 20
122.470645
 42
-0.153621
  0
VERTEX
  8
0
 10
177.172374
 20
121.010181
 42
-0.009265
  0
VERTEX
  8
0
 10
181.756702
 20
114.791070
 42
-0.014716
  0
VERTEX
  8
0
 10
186.077018
 20
108.300130
 42
-0.040535
  0
VERTEX
  8
0
 10
188.597865
 20
103.420018
 42
0.035870
  0
VERTEX
  8
0
 10
189.651839
 20
101.332155
 42
0.157799
  0
VERTEX
  8
0
 10
190.677140
 20
100.435466
 42
0.093379
  0
VERTEX
  8
0
 10
192.314783
 20
100.070379
 42
0.008283
  0
VERTEX
  8
0
 10
196.563080
 20
100.000000
 42
0.018419
  0
VERTEX
  8
0
 10
199.439898
 20
100.106013
 42
0.021961
  0
VERTEX
  8
0
 10
202.135603
 20
100.424452
 42
0.024032
  0
VERTEX
  8
0
 10
204.445921
 20
100.915799
 42
0.054966
  0
VERTEX
  8
0
 10
206.105705
 20
101.554662
 42
-0.104507
  0
VERTEX
  8
0
 10
210.827882
 20
102.856437
 42
-0.019433
  0
VERTEX
  8
0
 10
219.875586
 20
103.054352
 42
-0.014596
  0
VERTEX
  8
0
 10
228.972938
 20
102.633938
 42
-0.225689
  0
VERTEX
  8
0
 10
231.619362
 20
101.121124
 42
-0.078427
  0
VERTEX
  8
0
 10
232.125226
 20
100.076611
 42
-0.011142
  0
VERTEX
  8
0
 10
232.768201
 20
97.773080
 42
-0.012456
  0
VERTEX
  8
0
 10
233.405096
 20
94.990395
 42
-0.010325
  0
VERTEX
  8
0
 10
233.947530
 20
92.000000
 42
0.003990
  0
VERTEX
  8
0
 10
235.074424
 20
85.305620
 42
0.043480
  0
VERTEX
  8
0
 10
235.780957
 20
82.667301
 42
0.137204
  0
VERTEX
  8
0
 10
236.647615
 20
81.456594
 42
0.170839
  0
VERTEX
  8
0
 10
237.944943
 20
81.000000
 42
0.131169
  0
VERTEX
  8
0
 10
239.764588
 20
81.485717
 42
0.134164
  0
VERTEX
  8
0
 10
241.081708
 20
82.810852
 42
0.099083
  0
VERTEX
  8
0
 10
241.798316
 20
84.987065
 42
0.048203
  0
VERTEX
  8
0
 10
241.869578
 20
87.924529
 42
-0.031529
  0
VERTEX
  8
0
 10
241.849931
 20
90.097958
 42
-0.071079
  0
VERTEX
  8
0
 10
242.169879
 20
91.710077
 42
-0.072601
  0
VERTEX
  8
0
 10
242.923132
 20
93.147150
 42
-0.034075
  0
VERTEX
  8
0
 10
244.271419
 20
94.761413
 42
-0.041066
  0
VERTEX
  8
0
 10
245.554006
 20
95.897104
 42
-0.037609
  0
VERTEX
  8
0
 10
247.041842
 20
96.845440
 42
-0.039398
  0
VERTEX
  8
0
 10
248.561260
 20
97.512202
 42
-0.064770
  0
VERTEX
  8
0
 10
249.933534
 20
97.798112
 42
-0.073318
  0
VERTEX
  8
0
 10
254.242008
 20
97.494621
 42
-0.001133
  0
VERTEX
  8
0
 10
278.561688
 20
92.082678
 42
-0.001234
  0
VERTEX
  8
0
 10
302.716965
 20
86.587152
 42
-0.066404
  0
VERTEX
  8
0
 10
307.118915
 20
84.936359
 42
-0.226976
  0
VERTEX
  8
0
 10
308.895184
 20
82.515506
 42
-0.093764
  0
VERTEX
  8
0
 10
308.893691
 20
78.348346
 42
-0.030760
  0
VERTEX
  8
0
 10
306.929908
 20
70.620150
 42
-0.002999
  0
VERTEX
  8
0
 10
300.931085
 20
52.293658
 42
0.002657
  0
VERTEX
  8
0
 10
297.892064
 20
43.030884
 42
0.003912
  0
VERTEX
  8
0
 10
295.329756
 20
34.860262
 42
0.001859
  0
VERTEX
  8
0
 10
293.232369
 20
27.891461
 42
0.072282
  0
VERTEX
  8
0
 10
293.000000
 20
26.292485
 42
0.071819
  0
VERTEX
  8
0
 10
293.152058
 20
25.239324
 42
0.107356
  0
VERTEX
  8
0
 10
293.596820
 20
24.426496
 42
0.098999
  0
VERTEX
  8
0
 10
294.369842
 20
23.827944
 42
0.053956
  0
VERTEX
  8
0
 10
295.500000
 20
23.410644
 42
-0.264780
  0
VERTEX
  8
0
 10
297.840257
 20
21.170324
 42
-0.157027
  0
VERTEX
  8
0
 10
297.752912
 20
17.196680
 42
-0.127019
  0
VERTEX
  8
0
 10
295.242611
 20
13.416260
 42
-0.185055
  0
VERTEX
  8
0
 10
291.547053
 20
12.000000
 42
0.060814
  0
VERTEX
  8
0
 10
289.314313
 20
11.727430
 42
0.035269
  0
VERTEX
  8
0
 10
286.740003
 20
10.892961
 42
0.030159
  0
VERTEX
  8
0
 10
284.523476
 20
9.837867
 42
0.273053
  0
VERTEX
  8
0
 10
284.000000
 20
8.950776
 42
-0.273578
  0
VERTEX
  8
0
 10
283.811129
 20
8.631424
 42
-0.029850
  0
VERTEX
  8
0
 10
283.007825
 20
8.250356
 42
-0.029908
  0
VERTEX
  8
0
 10
281.916626
 20
7.884549
 42
-0.019556
  0
VERTEX
  8
0
 10
280.622384
 20
7.588937
 42
-0.060042
  0
VERTEX
  8
0
 10
278.615106
 20
7.457262
 42
-0.028474
  0
VERTEX
  8
0
 10
276.034980
 20
7.745800
 42
-0.022587
  0
VERTEX
  8
0
 10
272.834753
 20
8.439511
 42
-0.011436
  0
VERTEX
  8
0
 10
268.872384
 20
9.585360
 42
-0.007689
  0
VERTEX
  8
0
 10
262.837543
 20
11.583582
 42
-0.051412
  0
VERTEX
  8
0
 10
259.977460
 20
12.922598
 42
-0.091938
  0
VERTEX
  8
0
 10
258.217025
 20
14.478991
 42
-0.054187
  0
VERTEX
  8
0
 10
256.732501
 20
16.872245
 42
0.075823
  0
VERTEX
  8
0
 10
255.777610
 20
18.273119
 42
0.090760
  0
VERTEX
  8
0
 10
254.498886
 20
19.225419
 42
0.055775
  0
VERTEX
  8
0
 10
252.497798
 20
19.950567
 42
0.012911
  0
VERTEX
  8
0
 10
248.989342
 20
20.699841
 42
0.014518
  0
VERTEX
  8
0
 10
245.950533
 20
21.176364
 42
0.024821
  0
VERTEX
  8
0
 10
243.391041
 20
21.373525
 42
0.029972
  0
VERTEX
  8
0
 10
241.272870
 20
21.304282
 42
0.056516
  0
VERTEX
  8
0
 10
239.600777
 20
20.955718
 42
-0.054354
  0
VERTEX
  8
0
 10
236.120004
 20
20.214445
 42
-0.037703
  0
VERTEX
  8
0
 10
232.095209
 20
20.110356
 42
-0.026006
  0
VERTEX
  8
0
 10
226.815545
 20
20.648164
 42
-0.008695
  0
VERTEX
  8
0
 10
219.166077
 20
21.968354
 42
-0.008607
  0
VERTEX
  8
0
 10
213.618212
 20
23.124796
 42
-0.031196
  0
VERTEX
  8
0
 10
210.160388
 20
24.138194
 42
-0.046710
  0
VERTEX
  8
0
 10
207.649098
 20
25.322960
 42
-0.046625
  0
VERTEX
  8
0
 10
205.399718
 20
26.953905
 42
0.033761
  0
VERTEX
  8
0
 10
202.696325
 20
29.022019
 42
0.071356
  0
VERTEX
  8
0
 10
200.317176
 20
30.151010
 42
0.033448
  0
VERTEX
  8
0
 10
196.776369
 20
30.994002
 42
0.002816
  0
VERTEX
  8
0
 10
187.500000
 20
32.502685
 42
-0.001327
  0
VERTEX
  8
0
 10
183.469763
 20
33.145842
 42
-0.001530
  0
VERTEX
  8
0
 10
179.629687
 20
33.781172
 42
-0.001369
  0
VERTEX
  8
0
 10
176.378730
 20
34.338418
 42
-0.008921
  0
VERTEX
  8
0
 10
174.750000
 20
34.652232
 42
0.033383
  0
VERTEX
  8
0
 10
173.080105
 20
34.890015
 42
0.253573
  0
VERTEX
  8
0
 10
172.379658
 20
34.575554
 42
0.153180
  0
VERTEX
  8
0
 10
172.058268
 20
33.690012
 42
0.011038
  0
VERTEX
  8
0
 10
172.000000
 20
31.050836
 42
-0.021715
  0
VERTEX
  8
0
 10
171.924293
 20
29.308484
 42
-0.020054
  0
VERTEX
  8
0
 10
171.697542
 20
27.531925
 42
-0.020509
  0
VERTEX
  8
0
 10
171.367130
 20
25.966868
 42
-0.060655
  0
VERTEX
  8
0
 10
170.970356
 20
24.944609
 42
-0.100233
  0
VERTEX
  8
0
 10
169.591217
 20
23.277670
 42
-0.041918
  0
VERTEX
  8
0
 10
167.167375
 20
21.633572
 42
-0.041911
  0
VERTEX
  8
0
 10
164.461737
 20
20.397767
 42
-0.086384
  0
VERTEX
  8
0
 10
162.176609
 20
20.000000
 42
-0.097202
  0
VERTEX
  8
0
 10
160.908689
 20
20.248840
 42
-0.004741
  0
VERTEX
  8
0
 10
156.940369
 20
21.912939
 42
-0.007552
  0
VERTEX
  8
0
 10
152.248873
 20
24.017368
 42
-0.005365
  0
VERTEX
  8
0
 10
147.051088
 20
26.512132
 42
0.005035
  0
VERTEX
  8
0
 10
141.932763
 20
28.972926
 42
0.007970
  0
VERTEX
  8
0
 10
137.493079
 20
30.967000
 42
0.002957
  0
VERTEX
  8
0
 10
133.675059
 20
32.582538
 42
0.241526
  0
VERTEX
  8
0
 10
133.053301
 20
32.532942
 42
0.136607
  0
VERTEX
  8
0
 10
132.707914
 20
32.158975
 42
0.024364
  0
VERTEX
  8
0
 10
132.311464
 20
31.284025
 42
0.024738
  0
VERTEX
  8
0
 10
131.937644
 20
30.182796
 42
0.020100
  0
VERTEX
  8
0
 10
131.644251
 20
28.971254
 42
-0.058583
  0
VERTEX
  8
0
 10
131.121039
 20
27.362448
 42
-0.087258
  0
VERTEX
  8
0
 10
130.280473
 20
26.148277
 42
-0.069505
  0
VERTEX
  8
0
 10
128.927730
 20
25.114788
 42
-0.025324
  0
VERTEX
  8
0
 10
126.765089
 20
24.035290
 42
-0.053846
  0
VERTEX
  8
0
 10
121.195472
 20
22.283394
 42
-0.017312
  0
VERTEX
  8
0
 10
112.634925
 20
20.879607
 42
-0.012078
  0
VERTEX
  8
0
 10
104.092017
 20
19.989998
 42
-0.160829
  0
VERTEX
  8
0
 10
101.061722
 20
20.729381
 42
0.110190
  0
VERTEX
  8
0
 10
99.764839
 20
21.186318
 42
0.018678
  0
VERTEX
  8
0
 10
97.133344
 20
21.402340
 42
0.016849
  0
VERTEX
  8
0
 10
93.603324
 20
21.440677
 42
0.008053
  0
VERTEX
  8
0
 10
89.069596
 20
21.264039
 42
0.004721
  0
VERTEX
  8
0
 10
82.938696
 20
20.868116
 42
0.043075
  0
VERTEX
  8
0
 10
80.300036
 20
20.442219
 42
0.112426
  0
VERTEX
  8
0
 10
78.876748
 20
19.719177
 42
0.129093
  0
VERTEX
  8
0
 10
77.992930
 20
18.481405
 42
-0.110607
  0
VERTEX
  8
0
 10
76.207736
 20
15.778134
 42
-0.061421
  0
VERTEX
  8
0
 10
73.033458
 20
13.394204
 42
-0.039841
  0
VERTEX
  8
0
 10
68.044486
 20
11.034372
 42
-0.012994
  0
VERTEX
  8
0
 10
60.349878
 20
8.345380
 42
-0.006064
  0
VERTEX
  8
0
 10
54.558962
 20
6.566193
 42
-0.023312
  0
VERTEX
  8
0
 10
50.900032
 20
5.673347
 42
-0.037481
  0
VERTEX
  8
0
 10
48.411285
 20
5.378810
 42
-0.116162
  0
VERTEX
  8
0
 10
46.760856
 20
5.693506
 42
-0.155156
  0
VERTEX
  8
0
 10
45.292391
 20
7.001214
 42
-0.014260
  0
VERTEX
  8
0
 10
42.893850
 20
11.320977
 42
-0.012482
  0
VERTEX
  8
0
 10
39.669926
 20
17.937768
 42
-0.003408
  0
VERTEX
  8
0
 10
34.915640
 20
28.538253
 42
0.001991
  0
VERTEX
  8
0
 10
28.827274
 20
42.217021
 42
0.023124
  0
VERTEX
  8
0
 10
26.179049
 20
47.443489
 42
0.064990
  0
VERTEX
  8
0
 10
24.181424
 20
50.098540
 42
0.118647
  0
VERTEX
  8
0
 10
21.896510
 20
51.530368
 42
-0.085047
  0
VERTEX
  8
0
 10
19.816908
 20
52.648368
 42
-0.057285
  0
VERTEX
  8
0
 10
17.891452
 20
54.543289
 42
-0.030609
  0
VERTEX
  8
0
 10
15.554468
 20
57.832446
 42
-0.005897
  0
VERTEX
  8
0
 10
11.766147
 20
64.084743
 42
-0.007879
  0
VERTEX
  8
0
 10
9.185738
 20
68.620911
 42
-0.010641
  0
VERTEX
  8
0
 10
7.005619
 20
72.806859
 42
-0.007890
  0
VERTEX
  8
0
 10
5.324907
 20
76.348358
 42
-0.105423
  0
VERTEX
  8
0
 10
5.016147
 20
77.747119
 42
-0.162153
  0
VERTEX
  8
0
 10
6.097983
 20
81.074820
 42
-0.054361
  0
VERTEX
  8
0
 10
9.606794
 20
84.883465
 42
-0.042519
  0
VERTEX
  8
0
 10
15.071098
 20
88.890626
 42
-0.023668
  0
VERTEX
  8
0
 10
22.320745
 20
92.855227
 42
-0.012997
  0
VERTEX
  8
0
 10
29.973958
 20
96.338466
 42
-0.029998
  0
VERTEX
  8
0
 10
35.926764
 20
98.451859
 42
-0.032119
  0
VERTEX
  8
0
 10
41.837145
 20
99.754620
 42
-0.017103
  0
VERTEX
  8
0
 10
49.277019
 20
100.640641
 42
0.008784
  0
VERTEX
  8
0
 10
53.525988
 20
101.075103
 42
0.059328
  0
VERTEX
  8
0
 10
55.578307
 20
101.572948
 42
0.115649
  0
VERTEX
  8
0
 10
56.818248
 20
102.397374
 42
0.078363
  0
VERTEX
  8
0
 10
57.776366
 20
103.805868
 42
0.031554
  0
VERTEX
  8
0
 10
58.542498
 20
105.736058
 42
0.201383
  0
VERTEX
  8
0
 10
58.457350
 20
106.763442
 42
0.469626
  0
VERTEX
  8
0
 10
57.845940
 20
106.895389
 42
0.058310
  0
VERTEX
  8
0
 10
56.739668
 20
105.796499
 42
-0.129349
  0
VERTEX
  8
0
 10
55.764300
 20
105.068369
 42
-0.036105
  0
VERTEX
  8
0
 10
53.935791
 20
104.478974
 42
-0.027962
  0
VERTEX
  8
0
 10
51.371006
 20
104.002369
 42
-0.012465
  0
VERTEX
  8
0
 10
47.951877
 20
103.649319
 42
0.045367
  0
VERTEX
  8
0
 10
36.864810
 20
101.761713
 42
0.033663
  0
VERTEX
  8
0
 10
25.088853
 20
97.772748
 42
0.034320
  0
VERTEX
  8
0
 10
14.345993
 20
92.416444
 42
0.060074
  0
VERTEX
  8
0
 10
6.450762
 20
86.400254
 42
0.064526
  0
VERTEX
  8
0
 10
2.904648
 20
81.931436
 42
0.155389
  0
VERTEX
  8
0
 10
1.938148
 20
77.869461
 42
0.097446
  0
VERTEX
  8
0
 10
3.342520
 20
72.775172
 42
0.016876
  0
VERTEX
  8
0
 10
8.131565
 20
63.946468
 42
0.004584
  0
VERTEX
  8
0
 10
12.865028
 20
56.048726
 42
0.030808
  0
VERTEX
  8
0
 10
15.484619
 20
52.306254
 42
0.061981
  0
VERTEX
  8
0
 10
17.684513
 20
50.152954
 42
0.065718
  0
VERTEX
  8
0
 10
20.304161
 20
48.654279
 42
-0.133562
  0
VERTEX
  8
0
 10
22.188156
 20
47.210282
 42
-0.038154
  0
VERTEX
  8
0
 10
24.208955
 20
44.092148
 42
-0.018750
  0
VERTEX
  8
0
 10
26.987588
 20
38.501509
 42
-0.002786
  0
VERTEX
  8
0
 10
32.098889
 20
27.000000
 42
0.006108
  0
VERTEX
  8
0
 10
38.312506
 20
13.264692
 42
0.038035
  0
VERTEX
  8
0
 10
42.102059
 20
6.538631
 42
0.085032
  0
VERTEX
  8
0
 10
45.299017
 20
3.166717
 42
0.161988
  0
VERTEX
  8
0
 10
48.805764
 20
2.000007
 42
0.069622
  0
VERTEX
  8
0
 10
52.108379
 20
2.462126
 42
0.005883
  0
VERTEX
  8
0
 10
60.361532
 20
4.923251
 42
0.008084
  0
VERTEX
  8
0
 10
68.532015
 20
7.610417
 42
0.030540
  0
VERTEX
  8
0
 10
73.500000
 20
9.681472
 42
0.037773
  0
VERTEX
  8
0
 10
74.863122
 20
10.482979
 42
0.017771
  0
VERTEX
  8
0
 10
76.500000
 20
11.708312
 42
0.017495
  0
VERTEX
  8
0
 10
78.131986
 20
13.119919
 42
0.023533
  0
VERTEX
  8
0
 10
79.500000
 20
14.514909
 42
-0.032284
  0
VERTEX
  8
0
 10
81.526690
 20
16.510529
 42
-0.102349
  0
VERTEX
  8
0
 10
83.180102
 20
17.433516
 42
-0.065197
  0
VERTEX
  8
0
 10
85.447170
 20
17.834221
 42
-0.007964
  0
VERTEX
  8
0
 10
90.500000
 20
17.979814
 42
-0.007930
  0
VERTEX
  8
0
 10
93.852138
 20
17.969820
 42
-0.007221
  0
VERTEX
  8
0
 10
97.308658
 20
17.854732
 42
-0.007245
  0
VERTEX
  8
0
 10
100.395492
 20
17.662436
 42
-0.023109
  0
VERTEX
  8
0
 10
102.444368
 20
17.409324
 42
0.061110
  0
VERTEX
  8
0
 10
107.319679
 20
17.179743
 42
0.017017
  0
VERTEX
  8
0
 10
114.934110
 20
18.013342
 42
0.017562
  0
VERTEX
  8
0
 10
122.578053
 20
19.390027
 42
0.048789
  0
VERTEX
  8
0
 10
127.769083
 20
21.057504
 42
0.035677
  0
VERTEX
  8
0
 10
129.574635
 20
21.996658
 42
0.031641
  0
VERTEX
  8
0
 10
131.306054
 20
23.217687
 42
0.033031
  0
VERTEX
  8
0
 10
132.764290
 20
24.558626
 42
0.060126
  0
VERTEX
  8
0
 10
133.730855
 20
25.853761
 42
0.000000
  0
VERTEX
  8
0
 10
135.423543
 20
28.803101
 42
0.000000
  0
VERTEX
  8
0
 10
147.196395
 20
22.901550
 42
0.012108
  0
VERTEX
  8
0
 10
155.446934
 20
19.012724
 42
0.054949
  0
VERTEX
  8
0
 10
160.506811
 20
17.411657
 42
0.089729
  0
VERTEX
  8
0
 10
164.497421
 20
17.341058
 42
0.070561
  0
VERTEX
  8
0
 10
168.633477
 20
18.630363
 42
0.050368
  0
VERTEX
  8
0
 10
171.473286
 20
20.347008
 42
0.079052
  0
VERTEX
  8
0
 10
173.451950
 20
22.393078
 42
0.085014
  0
VERTEX
  8
0
 10
174.605432
 20
24.835265
 42
0.068014
  0
VERTEX
  8
0
 10
175.000000
 20
27.722506
 42
-0.021591
  0
VERTEX
  8
0
 10
175.054170
 20
28.976375
 42
-0.035224
  0
VERTEX
  8
0
 10
175.220313
 20
30.027469
 42
-0.039965
  0
VERTEX
  8
0
 10
175.459060
 20
30.780364
 42
-0.317060
  0
VERTEX
  8
0
 10
175.750000
 20
30.966751
 42
-0.025395
  0
VERTEX
  8
0
 10
176.312212
 20
30.913133
 42
-0.000343
  0
VERTEX
  8
0
 10
179.749133
 20
30.405827
 42
-0.000974
  0
VERTEX
  8
0
 10
183.730151
 20
29.807498
 42
-0.000640
  0
VERTEX
  8
0
 10
188.310877
 20
29.103913
 42
-0.005696
  0
VERTEX
  8
0
 10
195.273394
 20
27.944008
 42
-0.035924
  0
VERTEX
  8
0
 10
198.758769
 20
27.060408
 42
-0.064839
  0
VERTEX
  8
0
 10
201.120397
 20
25.920775
 42
-0.047706
  0
VERTEX
  8
0
 10
203.392331
 20
24.104357
 42
0.052177
  0
VERTEX
  8
0
 10
205.737409
 20
22.263501
 42
0.061449
  0
VERTEX
  8
0
 10
208.291750
 20
21.065589
 42
0.031726
  0
VERTEX
  8
0
 10
212.193530
 20
20.059556
 42
0.004625
  0
VERTEX
  8
0
 10
220.253570
 20
18.595683
 42
0.005442
  0
VERTEX
  8
0
 10
227.473537
 20
17.434014
 42
0.019124
  0
VERTEX
  8
0
 10
232.150958
 20
16.915512
 42
0.029043
  0
VERTEX
  8
0
 10
235.669786
 20
16.865939
 42
0.037824
  0
VERTEX
  8
0
 10
238.867564
 20
17.250212
 42
-0.039002
  0
VERTEX
  8
0
 10
244.089587
 20
17.865277
 42
-0.055068
  0
VERTEX
  8
0
 10
248.758567
 20
17.534416
 42
-0.068674
  0
VERTEX
  8
0
 10
252.280160
 20
16.375587
 42
-0.190360
  0
VERTEX
  8
0
 10
254.006317
 20
14.483385
 42
0.100137
  0
VERTEX
  8
0
 10
255.404363
 20
12.267920
 42
0.072268
  0
VERTEX
  8
0
 10
257.711705
 20
10.462449
 42
0.043144
  0
VERTEX
  8
0
 10
261.472651
 20
8.721858
 42
0.011189
  0
VERTEX
  8
0
 10
267.801622
 20
6.590439
 42
0.011540
  0
VERTEX
  8
0
 10
274.511935
 20
4.665311
 42
0.062875
  0
VERTEX
  8
0
 10
278.251820
 20
4.173618
 42
0.088477
  0
VERTEX
  8
0
 10
281.393327
 20
4.717269
 42
0.035224
  0
VERTEX
  8
0
 10
285.403975
 20
6.500000
 42
-0.018658
  0
VERTEX
  8
0
 10
287.378025
 20
7.456928
 42
-0.018572
  0
VERTEX
  8
0
 10
289.420953
 20
8.265625
 42
-0.018781
  0
VERTEX
  8
0
 10
291.254994
 20
8.837442
 42
-0.066265
  0
VERTEX
  8
0
 10
292.476189
 20
9.000000
 42
0.123646
  0
VERTEX
  8
0
 10
295.010276
 20
9.636390
 42
0.056495
  0
VERTEX
  8
0
 10
297.835409
 20
11.589797
 42
0.056158
  0
VERTEX
  8
0
 10
300.185458
 20
14.159541
 42
0.110368
  0
VERTEX
  8
0
 10
301.280770
 20
16.688422
 42
0.071144
  0
VERTEX
  8
0
 10
301.400711
 20
19.247493
 42
0.061960
  0
VERTEX
  8
0
 10
300.817533
 20
21.867990
 42
0.063023
  0
VERTEX
  8
0
 10
299.625656
 20
24.222421
 42
0.079641
  0
VERTEX
  8
0
 10
297.958206
 20
26.000000
 42
-0.226380
  0
VERTEX
  8
0
 10
297.096126
 20
27.709241
 42
-0.064944
  0
VERTEX
  8
0
 10
297.423884
 20
30.737110
 42
-0.019546
  0
VERTEX
  8
0
 10
299.071203
 20
36.539614
 42
-0.001298
  0
VERTEX
  8
0
 10
304.495011
 20
53.000000
 42
0.001818
  0
VERTEX
  8
0
 10
307.744445
 20
62.896076
 42
0.002774
  0
VERTEX
  8
0
 10
310.485386
 20
71.509616
 42
0.000987
  0
VERTEX
  8
0
 10
312.791508
 20
78.949926
 42
0.072638
  0
VERTEX
  8
0
 10
312.985453
 20
80.202947
 42
0.078907
  0
VERTEX
  8
0
 10
312.646518
 20
82.461642
 42
0.060055
  0
VERTEX
  8
0
 10
311.610086
 20
84.743162
 42
0.060939
  0
VERTEX
  8
0
 10
310.083564
 20
86.677533
 42
0.088593
  0
VERTEX
  8
0
 10
308.298831
 20
87.909705
 42
0.049267
  0
VERTEX
  8
0
 10
303.788529
 20
89.449924
 42
0.000960
  0
VERTEX
  8
0
 10
279.903167
 20
95.009774
 42
0.000860
  0
VERTEX
  8
0
 10
255.820157
 20
100.523337
 42
0.055894
  0
VERTEX
  8
0
 10
251.569460
 20
101.000000
 42
0.082631
  0
VERTEX
  8
0
 10
247.249048
 20
100.281090
 42
0.068678
  0
VERTEX
  8
0
 10
243.084059
 20
98.181549
 42
0.075584
  0
VERTEX
  8
0
 10
240.029778
 20
95.307888
 42
0.167793
  0
VERTEX
  8
0
 10
239.000000
 20
92.325686
 42
-0.041081
  0
VERTEX
  8
0
 10
238.926716
 20
91.435240
 42
-0.060536
  0
VERTEX
  8
0
 10
238.706250
 20
90.683170
 42
-0.079592
  0
VERTEX
  8
0
 10
238.382527
 20
90.172438
 42
-0.214976
  0
VERTEX
  8
0
 10
238.000000
 20
90.000000
 42
-0.241185
  0
VERTEX
  8
0
 10
237.616011
 20
90.196665
 42
-0.068500
  0
VERTEX
  8
0
 10
237.292112
 20
90.807812
 42
-0.052624
  0
VERTEX
  8
0
 10
237.069484
 20
91.696696
 42
-0.034571
  0
VERTEX
  8
0
 10
236.994423
 20
92.750000
 42
0.045019
  0
VERTEX
  8
0
 10
236.669467
 20
96.271959
 42
0.041604
  0
VERTEX
  8
0
 10
235.717769
 20
99.776829
 42
0.044243
  0
VERTEX
  8
0
 10
234.342827
 20
102.722328
 42
0.109085
  0
VERTEX
  8
0
 10
232.738630
 20
104.470517
 42
0.139919
  0
VERTEX
  8
0
 10
228.952271
 20
105.780059
 42
0.013472
  0
VERTEX
  8
0
 10
219.117621
 20
106.055551
 42
0.014594
  0
VERTEX
  8
0
 10
209.315285
 20
105.779806
 42
0.116018
  0
VERTEX
  8
0
 10
205.000000
 20
104.500000
 42
-0.093414
  0
VERTEX
  8
0
 10
202.195411
 20
103.529866
 42
-0.024978
  0
VERTEX
  8
0
 10
197.475092
 20
103.071546
 42
-0.017984
  0
VERTEX
  8
0
 10
192.847830
 20
103.021193
 42
-0.406886
  0
VERTEX
  8
0
 10
192.000000
 20
103.890560
 42
0.148219
  0
VERTEX
  8
0
 10
191.371725
 20
105.963415
 42
0.003748
  0
VERTEX
  8
0
 10
185.801865
 20
114.173629
 42
0.005549
  0
VERTEX
  8
0
 10
180.254856
 20
122.031607
 42
0.083696
  0
VERTEX
  8
0
 10
177.880547
 20
124.371115
 42
0.078775
  0
VERTEX
  8
0
 10
175.509369
 20
125.527618
 42
0.082508
  0
VERTEX
  8
0
 10
172.935045
 20
125.869199
 42
0.071392
  0
VERTEX
  8
0
 10
170.088701
 20
125.365150
 42
0.042131
  0
SEQEND
  0
POLYLINE
  8
0
 66
1
 70
1
  0
VERTEX
  8
0
 10
77.564855
 20
122.071664
 42
0.162354
  0
VERTEX
  8
0
 10
76.400742
 20
119.419901
 42
0.196715
  0
VERTEX
  8
0
 10
77.188951
 20
116.841761
 42
0.171654
  0
VERTEX
  8
0
 10
79.698271
 20
115.318336
 42
0.128949
  0
VERTEX
  8
0
 10
82.948848
 20
115.483765
 42
0.208615
  0
VERTEX
  8
0
 10
85.016948
 20
117.292742
 42
0.167996
  0
VERTEX
  8
0
 10
85.338091
 20
120.256970
 42
0.155452
  0
VERTEX
  8
0
 10
83.746637
 20
122.952087
 42
0.184284
  0
VERTEX
  8
0
 10
81.000000
 20
124.000000
 42
0.087932
  0
VERTEX
  8
0
 10
80.227464
 20
123.863080
 42
0.040195
  0
VERTEX
  8
0
 10
79.293791
 20
123.433551
 42
0.038172
  0
VERTEX
  8
0
 10
78.357416
 20
122.809541
 42
0.042801
  0
SEQEND
  0
POLYLINE
  8
0
 66
1
 70
1
  0
VERTEX
  8
0
 10
81.808333
 20
121.925000
 42
-0.073624
  0
VERTEX
  8
0
 10
81.600259
 20
121.514089
 42
-0.066918
  0
VERTEX
  8
0
 10
81.276198
 20
121.165781
 42
-0.070382
  0
VERTEX
  8
0
 10
80.889952
 20
120.930417
 42
-0.102038
  0
VERTEX
  8
0
 10
80.500000
 20
120.850000
 42
-0.102038
  0
VERTEX
  8
0
 10
80.110048
 20
120.930417
 42
-0.070382
  0
VERTEX
  8
0
 10
79.723802
 20
121.165781
 42
-0.066918
  0
VERTEX
  8
0
 10
79.399741
 20
121.514089
 42
-0.073624
  0
VERTEX
  8
0
 10
79.191667
 20
121.925000
 42
-0.159683
  0
VERTEX
  8
0
 10
79.189601
 20
122.333474
 42
-0.143818
  0
VERTEX
  8
0
 10
79.428177
 20
122.684219
 42
-0.107546
  0
VERTEX
  8
0
 10
79.888977
 20
122.920344
 42
-0.064908
  0
VERTEX
  8
0
 10
80.500000
 20
123.000000
 42
-0.064908
  0
VERTEX
  8
0
 10
81.111023
 20
122.920344
 42
-0.107546
  0
VERTEX
  8
0
 10
81.571823
 20
122.684219
 42
-0.143818
  0
VERTEX
  8
0
 10
81.810399
 20
122.333474
 42
-0.159683
  0
SEQEND
  0
POLYLINE
  8
0
 66
1
 70
1
  0
VERTEX
  8
0
 10
115.152880
 20
119.500000
 42
-0.050692
  0
VERTEX
  8
0
 10
115.131928
 20
118.530022
 42
-0.021032
  0
VERTEX
  8
0
 10
114.916383
 20
117.235191
 42
-0.020551
  0
VERTEX
  8
0
 10
114.567009
 20
115.856055
 42
-0.024945
  0
VERTEX
  8
0
 10
114.123469
 20
114.598522
 42
0.081085
  0
VERTEX
  8
0
 10
113.528679
 20
112.025197
 42
0.074879
  0
VERTEX
  8
0
 10
113.756758
 20
109.321093
 42
0.087618
  0
VERTEX
  8
0
 10
114.684605
 20
107.177004
 42
0.201627
  0
VERTEX
  8
0
 10
116.117760
 20
106.218101
 42
0.202446
  0
VERTEX
  8
0
 10
116.812047
 20
106.364441
 42
0.092860
  0
VERTEX
  8
0
 10
117.473988
 20
107.035739
 42
0.058760
  0
VERTEX
  8
0
 10
118.090790
 20
108.232735
 42
0.024401
  0
VERTEX
  8
0
 10
118.645963
 20
109.968101
 42
0.016459
  0
VERTEX
  8
0
 10
119.004626
 20
111.514400
 42
0.028832
  0
VERTEX
  8
0
 10
119.184491
 20
112.815630
 42
0.030625
  0
VERTEX
  8
0
 10
119.202232
 20
113.775596
 42
0.401747
  0
VERTEX
  8
0
 10
118.968023
 20
114.000000
 42
-0.236017
  0
VERTEX
  8
0
 10
118.591409
 20
114.188262
 42
-0.020284
  0
VERTEX
  8
0
 10
117.962380
 20
115.101562
 42
-0.023370
  0
VERTEX
  8
0
 10
117.275298
 20
116.313247
 42
-0.015872
  0
VERTEX
  8
0
 10
116.603525
 20
117.750000
 42
0.013714
  0
VERTEX
  8
0
 10
115.989854
 20
119.077384
 42
0.057981
  0
VERTEX
  8
0
 10
115.513115
 20
119.810937
 42
0.441581
  0
VERTEX
  8
0
 10
115.271701
 20
119.822291
 42
0.219903
  0
SEQEND
  0
POLYLINE
  8
0
 66
1
 70
1
  0
VERTEX
  8
0
 10
65.829004
 20
112.502328
 42
-0.011585
  0
VERTEX
  8
0
 10
65.932068
 20
107.513687
 42
-0.121971
  0
VERTEX
  8
0
 10
65.440467
 20
105.549584
 42
-0.409068
  0
VERTEX
  8
0
 10
64.403688
 20
105.221813
 42
-0.078913
  0
VERTEX
  8
0
 10
62.642857
 20
106.500000
 42
0.025889
  0
VERTEX
  8
0
 10
61.506717
 20
107.524207
 42
0.109676
  0
VERTEX
  8
0
 10
60.692404
 20
107.931099
 42
0.295406
  0
VERTEX
  8
0
 10
60.209678
 20
107.765987
 42
0.168251
  0
VERTEX
  8
0
 10
60.000000
 20
107.160515
 42
0.175524
  0
VERTEX
  8
0
 10
60.144126
 20
106.762605
 42
0.038253
  0
VERTEX
  8
0
 10
60.660938
 20
106.231209
 42
0.035460
  0
VERTEX
  8
0
 10
61.388585
 20
105.675805
 42
0.027566
  0
VERTEX
  8
0
 10
62.250000
 20
105.175773
 42
-0.011499
  0
VERTEX
  8
0
 10
63.290633
 20
104.615593
 42
-0.005855
  0
VERTEX
  8
0
 10
64.573437
 20
103.866509
 42
-0.005814
  0
VERTEX
  8
0
 10
65.878913
 20
103.062760
 42
-0.008666
  0
VERTEX
  8
0
 10
67.000000
 20
102.326940
 42
0.011166
  0
VERTEX
  8
0
 10
67.914025
 20
101.733541
 42
0.076760
  0
VERTEX
  8
0
 10
68.405985
 20
101.525385
 42
0.635044
  0
VERTEX
  8
0
 10
68.499065
 20
101.639023
 42
0.072053
  0
VERTEX
  8
0
 10
68.250000
 20
102.011682
 42
-0.128750
  0
VERTEX
  8
0
 10
67.711988
 20
103.052899
 42
-0.023136
  0
VERTEX
  8
0
 10
67.329467
 20
105.221739
 42
-0.020989
  0
VERTEX
  8
0
 10
67.079722
 20
108.107090
 42
-0.011093
  0
VERTEX
  8
0
 10
67.000000
 20
111.700000
 42
0.008475
  0
VERTEX
  8
0
 10
66.946050
 20
114.882558
 42
0.014049
  0
VERTEX
  8
0
 10
66.779687
 20
117.562559
 42
0.007672
  0
VERTEX
  8
0
 10
66.549680
 20
119.735989
 42
0.378378
  0
VERTEX
  8
0
 10
66.250000
 20
120.002328
 42
0.387903
  0
VERTEX
  8
0
 10
65.962676
 20
119.741570
 42
0.009422
  0
VERTEX
  8
0
 10
65.816957
 20
117.800163
 42
0.015615
  0
VERTEX
  8
0
 10
65.756782
 20
115.378795
 42
0.009362
  0
SEQEND
  0
POLYLINE
  8
0
 66
1
 70
1
  0
VERTEX
  8
0
 10
168.898637
 20
115.745033
 42
0.026643
  0
VERTEX
  8
0
 10
167.399274
 20
114.304818
 42
0.003471
  0
VERTEX
  8
0
 10
164.393341
 20
111.047615
 42
0.004034
  0
VERTEX
  8
0
 10
160.882711
 20
107.127049
 42
0.003363
  0
VERTEX
  8
0
 10
157.214437
 20
102.906422
 42
0.000000
  0
VERTEX
  8
0
 10
148.131600
 20
92.312844
 42
0.000000
  0
VERTEX
  8
0
 10
150.187635
 20
90.256810
 42
0.000000
  0
VERTEX
  8
0
 10
152.243669
 20
88.200775
 42
0.000000
  0
VERTEX
  8
0
 10
150.061052
 20
87.032674
 42
-0.150345
  0
VERTEX
  8
0
 10
148.517534
 20
86.731114
 42
-0.111549
  0
VERTEX
  8
0
 10
146.862472
 20
87.293751
 42
-0.042021
  0
VERTEX
  8
0
 10
144.440254
 20
89.074207
 42
-0.004822
  0
VERTEX
  8
0
 10
139.382109
 20
93.578123
 42
0.000000
  0
VERTEX
  8
0
 10
130.885784
 20
101.291673
 42
0.000000
  0
VERTEX
  8
0
 10
127.942892
 20
99.115899
 42
-0.011579
  0
VERTEX
  8
0
 10
126.385755
 20
98.019499
 42
-0.093847
  0
VERTEX
  8
0
 10
125.586418
 20
97.678547
 42
-0.320885
  0
VERTEX
  8
0
 10
125.171411
 20
97.856449
 42
-0.137050
  0
VERTEX
  8
0
 10
125.000000
 20
98.470063
 42
0.019319
  0
VERTEX
  8
0
 10
124.977333
 20
99.056493
 42
0.031277
  0
VERTEX
  8
0
 10
124.907805
 20
99.550581
 42
0.032724
  0
VERTEX
  8
0
 10
124.808390
 20
99.912947
 42
0.319669
  0
VERTEX
  8
0
 10
124.686144
 20
100.000000
 42
0.079701
  0
VERTEX
  8
0
 10
123.161221
 20
99.755369
 42
0.000525
  0
VERTEX
  8
0
 10
110.284284
 20
95.499757
 42
0.000853
  0
VERTEX
  8
0
 10
97.775726
 20
91.327600
 42
0.046536
  0
VERTEX
  8
0
 10
95.500000
 20
90.320448
 42
0.102679
  0
VERTEX
  8
0
 10
94.450307
 20
89.410333
 42
0.113382
  0
VERTEX
  8
0
 10
93.895541
 20
88.188000
 42
0.053723
  0
VERTEX
  8
0
 10
93.707573
 20
86.170840
 42
0.008076
  0
VERTEX
  8
0
 10
93.831999
 20
82.102843
 42
0.004890
  0
VERTEX
  8
0
 10
94.092623
 20
77.495551
 42
0.083782
  0
VERTEX
  8
0
 10
94.441518
 20
76.028345
 42
0.276906
  0
VERTEX
  8
0
 10
95.167460
 20
75.499173
 42
0.084077
  0
VERTEX
  8
0
 10
96.581999
 20
75.609936
 42
-0.031141
  0
VERTEX
  8
0
 10
97.814125
 20
75.838786
 42
-0.151144
  0
VERTEX
  8
0
 10
98.505531
 20
75.713946
 42
-0.210140
  0
VERTEX
  8
0
 10
98.876797
 20
75.252850
 42
-0.066830
  0
VERTEX
  8
0
 10
98.993896
 20
74.358408
 42
-0.123203
  0
VERTEX
  8
0
 10
98.757288
 20
73.425768
 42
-0.166172
  0
VERTEX
  8
0
 10
98.123670
 20
72.838047
 42
-0.082352
  0
VERTEX
  8
0
 10
96.882733
 20
72.515668
 42
-0.015622
  0
VERTEX
  8
0
 10
94.542125
 20
72.378365
 42
0.033328
  0
VERTEX
  8
0
 10
92.553371
 20
72.190901
 42
0.020401
  0
VERTEX
  8
0
 10
90.244107
 20
71.719395
 42
0.020415
  0
VERTEX
  8
0
 10
87.985529
 20
71.062509
 42
0.033910
  0
VERTEX
  8
0
 10
86.153423
 20
70.305871
 42
0.000000
  0
VERTEX
  8
0
 10
82.210386
 20
68.355011
 42
0.000000
  0
VERTEX
  8
0
 10
81.809110
 20
74.656932
 42
0.056604
  0
VERTEX
  8
0
 10
80.814774
 20
80.226253
 42
0.074339
  0
VERTEX
  8
0
 10
78.626308
 20
84.897016
 42
0.071193
  0
VERTEX
  8
0
 10
75.081499
 20
88.868272
 42
0.047000
  0
VERTEX
  8
0
 10
70.044215
 20
92.359001
 42
0.069564
  0
VERTEX
  8
0
 10
63.665435
 20
94.856337
 42
0.045122
  0
VERTEX
  8
0
 10
55.813890
 20
95.995459
 42
0.041827
  0
VERTEX
  8
0
 10
47.190627
 20
95.739189
 42
0.038630
  0
VERTEX
  8
0
 10
38.490888
 20
94.061217
 42
0.028096
  0
VERTEX
  8
0
 10
31.618776
 20
91.753825
 42
0.018403
  0
VERTEX
  8
0
 10
23.977727
 20
88.369795
 42
0.018391
  0
VERTEX
  8
0
 10
16.963574
 20
84.624079
 42
0.045407
  0
VERTEX
  8
0
 10
12.213744
 20
81.247288
 42
0.000000
  0
VERTEX
  8
0
 10
9.009532
 20
78.500000
 42
0.000000
  0
VERTEX
  8
0
 10
15.689649
 20
67.345043
 42
0.003553
  0
VERTEX
  8
0
 10
19.912182
 20
60.406300
 42
0.043892
  0
VERTEX
  8
0
 10
21.761179
 20
57.930735
 42
0.144801
  0
VERTEX
  8
0
 10
23.194759
 20
57.043986
 42
0.158731
  0
VERTEX
  8
0
 10
24.823571
 20
57.123021
 42
-0.012051
  0
VERTEX
  8
0
 10
25.779896
 20
57.460470
 42
-0.018717
  0
VERTEX
  8
0
 10
26.621070
 20
57.700251
 42
-0.013488
  0
VERTEX
  8
0
 10
27.307383
 20
57.848892
 42
-0.279065
  0
VERTEX
  8
0
 10
27.496946
 20
57.777978
 42
-0.063425
  0
VERTEX
  8
0
 10
27.643545
 20
57.534441
 42
-0.000046
  0
VERTEX
  8
0
 10
30.664887
 20
50.678531
 42
-0.000538
  0
VERTEX
  8
0
 10
34.024896
 20
43.029959
 42
-0.000329
  0
VERTEX
  8
0
 10
37.973095
 20
34.000000
 42
0.000269
  0
VERTEX
  8
0
 10
41.917647
 20
24.975452
 42
0.000443
  0
VERTEX
  8
0
 10
45.265895
 20
17.344780
 42
0.000028
  0
VERTEX
  8
0
 10
48.286333
 20
10.478751
 42
0.071367
  0
VERTEX
  8
0
 10
48.396792
 20
10.301378
 42
0.311349
  0
VERTEX
  8
0
 10
49.417532
 20
10.021460
 42
0.001757
  0
VERTEX
  8
0
 10
59.347335
 20
13.528798
 42
0.004391
  0
VERTEX
  8
0
 10
68.638899
 20
16.939769
 42
0.080878
  0
VERTEX
  8
0
 10
71.351195
 20
18.500000
 42
0.000000
  0
VERTEX
  8
0
 10
73.807182
 20
20.500000
 42
0.000000
  0
VERTEX
  8
0
 10
71.524266
 20
27.500000
 42
-0.005565
  0
VERTEX
  8
0
 10
70.673594
 20
30.210347
 42
-0.008799
  0
VERTEX
  8
0
 10
70.011311
 20
32.554073
 42
-0.003512
  0
VERTEX
  8
0
 10
69.499140
 20
34.553429
 42
-0.249195
  0
VERTEX
  8
0
 10
69.579577
 20
34.875568
 42
-0.402161
  0
VERTEX
  8
0
 10
69.823513
 20
34.893390
 42
-0.014217
  0
VERTEX
  8
0
 10
70.599887
 20
34.212127
 42
-0.019274
  0
VERTEX
  8
0
 10
71.533634
 20
33.274977
 42
-0.011383
  0
VERTEX
  8
0
 10
72.578017
 20
32.089651
 42
0.047493
  0
VERTEX
  8
0
 10
75.472503
 20
29.246927
 42
0.064140
  0
VERTEX
  8
0
 10
78.590794
 20
27.320645
 42
0.062909
  0
VERTEX
  8
0
 10
82.143422
 20
26.223238
 42
0.043540
  0
VERTEX
  8
0
 10
86.338468
 20
25.857670
 42
0.029837
  0
VERTEX
  8
0
 10
90.333999
 20
26.096717
 42
0.044662
  0
VERTEX
  8
0
 10
93.752337
 20
26.820585
 42
0.045990
  0
VERTEX
  8
0
 10
96.914016
 20
28.119680
 42
0.034265
  0
VERTEX
  8
0
 10
100.130606
 20
30.093000
 42
0.000000
  0
VERTEX
  8
0
 10
103.000000
 20
32.136188
 42
0.000000
  0
VERTEX
  8
0
 10
103.000000
 20
28.568094
 42
0.056554
  0
VERTEX
  8
0
 10
103.274570
 20
26.148371
 42
0.290219
  0
VERTEX
  8
0
 10
104.191458
 20
25.241510
 42
0.085006
  0
VERTEX
  8
0
 10
106.241488
 20
25.148424
 42
0.003103
  0
VERTEX
  8
0
 10
114.000000
 20
26.166185
 42
0.016013
  0
VERTEX
  8
0
 10
121.548558
 20
27.451569
 42
0.113618
  0
VERTEX
  8
0
 10
124.907432
 20
28.979647
 42
0.178126
  0
VERTEX
  8
0
 10
126.508395
 20
31.504936
 42
0.053168
  0
VERTEX
  8
0
 10
127.000000
 20
36.115010
 42
-0.008145
  0
VERTEX
  8
0
 10
127.036762
 20
38.371455
 42
-0.013514
  0
VERTEX
  8
0
 10
127.150138
 20
40.271284
 42
-0.007120
  0
VERTEX
  8
0
 10
127.306672
 20
41.817839
 42
-0.380887
  0
VERTEX
  8
0
 10
127.511108
 20
42.000000
 42
-0.113321
  0
VERTEX
  8
0
 10
127.896581
 20
41.911499
 42
-0.000290
  0
VERTEX
  8
0
 10
132.910164
 20
39.477661
 42
-0.001797
  0
VERTEX
  8
0
 10
138.561238
 20
36.705152
 42
-0.001116
  0
VERTEX
  8
0
 10
145.173145
 20
33.413314
 42
0.003044
  0
VERTEX
  8
0
 10
154.850912
 20
28.641558
 42
0.020921
  0
VERTEX
  8
0
 10
159.715523
 20
26.526326
 42
0.043710
  0
VERTEX
  8
0
 10
162.709117
 20
25.662401
 42
0.156540
  0
VERTEX
  8
0
 10
164.662037
 20
25.891875
 42
0.094044
  0
VERTEX
  8
0
 10
165.961006
 20
26.809573
 42
0.131556
  0
VERTEX
  8
0
 10
166.647329
 20
28.046447
 42
0.055305
  0
VERTEX
  8
0
 10
166.939596
 20
30.206654
 42
0.005996
  0
VERTEX
  8
0
 10
167.000000
 20
35.243842
 42
0.000000
  0
VERTEX
  8
0
 10
167.000000
 20
43.530562
 42
0.000000
  0
VERTEX
  8
0
 10
172.250000
 20
45.497589
 42
0.001166
  0
VERTEX
  8
0
 10
174.306559
 20
46.273599
 42
0.001631
  0
VERTEX
  8
0
 10
176.140889
 20
46.977503
 42
0.000973
  0
VERTEX
  8
0
 10
177.683307
 20
47.578625
 42
0.021608
  0
VERTEX
  8
0
 10
178.123238
 20
47.773387
 42
-0.536570
  0
VERTEX
  8
0
 10
178.323146
 20
47.657606
 42
-0.025468
  0
VERTEX
  8
0
 10
178.332377
 20
46.730952
 42
-0.023053
  0
VERTEX
  8
0
 10
178.217611
 20
45.416071
 42
-0.012027
  0
VERTEX
  8
0
 10
177.960016
 20
43.791079
 42
0.005112
  0
VERTEX
  8
0
 10
177.673317
 20
42.131268
 42
0.008037
  0
VERTEX
  8
0
 10
177.464611
 20
40.699461
 42
0.003107
  0
VERTEX
  8
0
 10
177.314257
 20
39.477814
 42
0.227110
  0
VERTEX
  8
0
 10
177.377920
 20
39.292192
 42
0.154024
  0
VERTEX
  8
0
 10
177.572383
 20
39.188939
 42
0.000426
  0
VERTEX
  8
0
 10
180.524530
 20
38.646818
 42
0.002497
  0
VERTEX
  8
0
 10
183.869851
 20
38.052692
 42
0.001549
  0
VERTEX
  8
0
 10
187.802804
 20
37.386990
 42
0.006630
  0
VERTEX
  8
0
 10
193.044583
 20
36.587722
 42
0.023691
  0
VERTEX
  8
0
 10
196.421019
 20
36.280700
 42
0.037476
  0
VERTEX
  8
0
 10
198.783860
 20
36.355410
 42
0.080423
  0
VERTEX
  8
0
 10
200.537504
 20
36.835134
 42
-0.029391
  0
VERTEX
  8
0
 10
201.995934
 20
37.398727
 42
-0.165191
  0
VERTEX
  8
0
 10
202.819789
 20
37.384366
 42
-0.169769
  0
VERTEX
  8
0
 10
203.451881
 20
36.871979
 42
-0.031449
  0
VERTEX
  8
0
 10
204.167778
 20
35.531113
 42
0.032607
  0
VERTEX
  8
0
 10
204.816670
 20
34.322487
 42
0.135661
  0
VERTEX
  8
0
 10
205.420045
 20
33.767988
 42
0.177726
  0
VERTEX
  8
0
 10
206.124508
 20
33.681789
 42
0.065437
  0
VERTEX
  8
0
 10
207.076194
 20
34.040778
 42
-0.023661
  0
VERTEX
  8
0
 10
208.764908
 20
34.844231
 42
-0.262478
  0
VERTEX
  8
0
 10
209.479980
 20
34.760469
 42
-0.199729
  0
VERTEX
  8
0
 10
209.898846
 20
34.071950
 42
-0.013869
  0
VERTEX
  8
0
 10
210.186642
 20
31.772985
 42
0.000000
  0
VERTEX
  8
0
 10
210.500000
 20
28.545970
 42
0.000000
  0
VERTEX
  8
0
 10
222.698271
 20
26.467936
 42
0.004536
  0
VERTEX
  8
0
 10
229.460221
 20
25.379029
 42
0.024804
  0
VERTEX
  8
0
 10
233.142873
 20
25.005833
 42
0.047526
  0
VERTEX
  8
0
 10
235.548153
 20
25.110735
 42
0.086228
  0
VERTEX
  8
0
 10
237.417506
 20
25.710769
 42
0.032715
  0
VERTEX
  8
0
 10
238.769815
 20
26.536221
 42
0.148235
  0
VERTEX
  8
0
 10
239.332002
 20
27.256077
 42
0.150237
  0
VERTEX
  8
0
 10
239.395891
 20
28.161306
 42
0.033898
  0
VERTEX
  8
0
 10
238.941257
 20
29.654506
 42
-0.018147
  0
VERTEX
  8
0
 10
238.252649
 20
31.684534
 42
-0.246961
  0
VERTEX
  8
0
 10
238.398073
 20
32.426707
 42
-0.151739
  0
VERTEX
  8
0
 10
239.137445
 20
32.923785
 42
-0.006027
  0
VERTEX
  8
0
 10
242.301310
 20
33.828968
 42
0.000000
  0
VERTEX
  8
0
 10
246.102619
 20
34.867120
 42
0.000000
  0
VERTEX
  8
0
 10
245.456815
 20
30.560590
 42
0.000000
  0
VERTEX
  8
0
 10
244.811011
 20
26.254059
 42
0.000000
  0
VERTEX
  8
0
 10
250.655505
 20
25.552909
 42
-0.006573
  0
VERTEX
  8
0
 10
256.981285
 20
24.709531
 42
-0.072384
  0
VERTEX
  8
0
 10
259.425761
 20
23.979528
 42
-0.177631
  0
VERTEX
  8
0
 10
260.616762
 20
22.786345
 42
-0.084199
  0
VERTEX
  8
0
 10
261.193672
 20
20.659569
 42
0.074497
  0
VERTEX
  8
0
 10
261.668627
 20
18.764777
 42
0.146563
  0
VERTEX
  8
0
 10
262.642887
 20
17.573152
 42
0.064367
  0
VERTEX
  8
0
 10
264.657196
 20
16.560545
 42
0.006259
  0
VERTEX
  8
0
 10
269.839311
 20
14.815972
 42
0.008321
  0
VERTEX
  8
0
 10
274.200808
 20
13.487917
 42
0.032055
  0
VERTEX
  8
0
 10
276.967176
 20
12.884253
 42
0.053189
  0
VERTEX
  8
0
 10
278.936714
 20
12.796586
 42
0.091689
  0
VERTEX
  8
0
 10
280.523912
 20
13.192849
 42
0.176679
  0
VERTEX
  8
0
 10
282.181045
 20
14.823279
 42
0.017382
  0
VERTEX
  8
0
 10
284.443956
 20
20.043903
 42
0.011214
  0
VERTEX
  8
0
 10
287.733886
 20
29.005907
 42
0.001651
  0
VERTEX
  8
0
 10
293.923316
 20
47.308669
 42
0.001459
  0
VERTEX
  8
0
 10
298.130856
 20
60.010531
 42
0.002404
  0
VERTEX
  8
0
 10
301.604322
 20
70.774241
 42
0.000260
  0
VERTEX
  8
0
 10
304.647562
 20
80.379612
 42
0.279910
  0
VERTEX
  8
0
 10
304.548621
 20
80.784712
 42
0.141576
  0
VERTEX
  8
0
 10
302.663727
 20
81.824531
 42
0.003283
  0
VERTEX
  8
0
 10
292.632665
 20
84.028384
 42
0.002615
  0
VERTEX
  8
0
 10
282.418328
 20
86.146505
 42
0.193534
  0
VERTEX
  8
0
 10
280.780589
 20
85.843235
 42
-0.037298
  0
VERTEX
  8
0
 10
279.548057
 20
85.184419
 42
-0.144079
  0
VERTEX
  8
0
 10
278.697011
 20
85.073040
 42
-0.246513
  0
VERTEX
  8
0
 10
278.189062
 20
85.450791
 42
-0.112462
  0
VERTEX
  8
0
 10
278.000000
 20
86.280719
 42
0.314379
  0
VERTEX
  8
0
 10
277.520499
 20
86.967963
 42
0.013297
  0
VERTEX
  8
0
 10
274.553189
 20
87.970503
 42
0.016035
  0
VERTEX
  8
0
 10
270.374501
 20
89.114228
 42
0.006168
  0
VERTEX
  8
0
 10
264.505384
 20
90.443687
 42
0.004374
  0
VERTEX
  8
0
 10
257.183682
 20
91.940651
 42
0.022107
  0
VERTEX
  8
0
 10
253.059478
 20
92.558578
 42
0.040649
  0
VERTEX
  8
0
 10
250.363052
 20
92.621317
 42
0.092648
  0
VERTEX
  8
0
 10
248.394189
 20
92.133743
 42
0.062444
  0
VERTEX
  8
0
 10
246.893870
 20
91.209235
 42
0.157307
  0
VERTEX
  8
0
 10
246.196862
 20
90.149452
 42
0.074538
  0
VERTEX
  8
0
 10
245.983443
 20
88.392862
 42
0.007137
  0
VERTEX
  8
0
 10
246.165744
 20
84.072525
 42
0.000000
  0
VERTEX
  8
0
 10
246.553879
 20
77.203501
 42
0.000000
  0
VERTEX
  8
0
 10
242.837023
 20
76.704966
 42
0.024947
  0
VERTEX
  8
0
 10
241.179736
 20
76.397879
 42
0.015393
  0
VERTEX
  8
0
 10
239.265409
 20
75.880657
 42
0.015427
  0
VERTEX
  8
0
 10
237.400288
 20
75.251132
 42
0.026599
  0
VERTEX
  8
0
 10
235.897753
 20
74.598879
 42
-0.010587
  0
VERTEX
  8
0
 10
234.640721
 20
74.004686
 42
-0.016550
  0
VERTEX
  8
0
 10
233.532728
 20
73.552741
 42
-0.010813
  0
VERTEX
  8
0
 10
232.615661
 20
73.235985
 42
-0.281162
  0
VERTEX
  8
0
 10
232.371697
 20
73.294970
 42
-0.151952
  0
VERTEX
  8
0
 10
232.223835
 20
73.576370
 42
-0.000941
  0
VERTEX
  8
0
 10
231.703171
 20
76.432434
 42
-0.003728
  0
VERTEX
  8
0
 10
231.136716
 20
79.713011
 42
-0.002354
  0
VERTEX
  8
0
 10
230.522257
 20
83.549306
 42
0.003845
  0
VERTEX
  8
0
 10
228.734879
 20
94.499310
 42
0.134914
  0
VERTEX
  8
0
 10
227.645269
 20
96.827651
 42
0.208708
  0
VERTEX
  8
0
 10
225.596134
 20
97.826040
 42
0.011284
  0
VERTEX
  8
0
 10
218.230948
 20
97.968197
 42
0.008405
  0
VERTEX
  8
0
 10
213.587492
 20
97.874949
 42
0.022734
  0
VERTEX
  8
0
 10
210.303279
 20
97.603880
 42
0.031395
  0
VERTEX
  8
0
 10
207.980640
 20
97.155789
 42
0.098872
  0
VERTEX
  8
0
 10
206.558870
 20
96.468197
 42
-0.090311
  0
VERTEX
  8
0
 10
205.270407
 20
95.817867
 42
-0.032755
  0
VERTEX
  8
0
 10
203.264820
 20
95.365576
 42
-0.026029
  0
VERTEX
  8
0
 10
200.612433
 20
95.088001
 42
-0.013057
  0
VERTEX
  8
0
 10
197.243129
 20
95.000000
 42
0.018144
  0
VERTEX
  8
0
 10
191.615728
 20
94.795730
 42
0.083012
  0
VERTEX
  8
0
 10
188.448342
 20
94.026623
 42
0.142212
  0
VERTEX
  8
0
 10
186.589787
 20
92.503958
 42
0.096720
  0
VERTEX
  8
0
 10
185.495551
 20
89.979742
 42
0.000000
  0
VERTEX
  8
0
 10
184.828537
 20
86.942851
 42
0.000000
  0
VERTEX
  8
0
 10
181.353512
 20
89.090535
 42
0.026870
  0
VERTEX
  8
0
 10
179.690295
 20
89.998824
 42
0.014133
  0
VERTEX
  8
0
 10
177.537194
 20
90.954806
 42
0.014021
  0
VERTEX
  8
0
 10
175.270446
 20
91.812034
 42
0.020937
  0
VERTEX
  8
0
 10
173.241614
 20
92.421095
 42
0.000000
  0
VERTEX
  8
0
 10
168.604742
 20
93.603972
 42
0.000000
  0
VERTEX
  8
0
 10
176.052371
 20
97.429879
 42
0.001449
  0
VERTEX
  8
0
 10
178.935042
 20
98.921304
 42
0.002210
  0
VERTEX
  8
0
 10
181.427457
 20
100.234033
 42
0.000777
  0
VERTEX
  8
0
 10
183.570482
 20
101.379149
 42
0.058300
  0
VERTEX
  8
0
 10
183.892163
 20
101.603389
 42
0.375559
  0
VERTEX
  8
0
 10
184.018036
 20
102.588881
 42
0.002691
  0
VERTEX
  8
0
 10
178.955675
 20
110.038536
 42
0.003181
  0
VERTEX
  8
0
 10
173.852130
 20
117.362306
 42
0.244782
  0
VERTEX
  8
0
 10
172.623925
 20
117.995033
 42
0.112745
  0
VERTEX
  8
0
 10
172.029715
 20
117.856553
 42
0.022463
  0
VERTEX
  8
0
 10
171.066003
 20
117.332046
 42
0.022719
  0
VERTEX
  8
0
 10
169.977008
 20
116.604839
 42
0.019453
  0
SEQEND
  0
POLYLINE
  8
0
 66
1
 70
1
  0
VERTEX
  8
0
 10
177.972427
 20
103.500000
 42
-0.289520
  0
VERTEX
  8
0
 10
177.190483
 20
102.187814
 42
-0.005965
  0
VERTEX
  8
0
 10
170.027540
 20
98.658264
 42
-0.006392
  0
VERTEX
  8
0
 10
162.812877
 20
95.322206
 42
-0.248405
  0
VERTEX
  8
0
 10
161.103100
 20
95.436281
 42
-0.399969
  0
VERTEX
  8
0
 10
160.952772
 20
96.010001
 42
-0.016035
  0
VERTEX
  8
0
 10
162.158398
 20
98.036124
 42
-0.020062
  0
VERTEX
  8
0
 10
163.928100
 20
100.573847
 42
-0.010924
  0
VERTEX
  8
0
 10
166.290304
 20
103.549872
 42
0.000000
  0
VERTEX
  8
0
 10
172.500000
 20
111.031529
 42
0.000000
  0
VERTEX
  8
0
 10
175.223099
 20
107.765765
 42
-0.013454
  0
VERTEX
  8
0
 10
176.267779
 20
106.442057
 42
-0.017180
  0
VERTEX
  8
0
 10
177.153993
 20
105.165568
 42
-0.015200
  0
VERTEX
  8
0
 10
177.816539
 20
104.065538
 42
-0.121971
  0
SEQEND
  0
POLYLINE
  8
0
 66
1
 70
1
  0
VERTEX
  8
0
 10
226.250638
 20
81.210738
 42
-0.002989
  0
VERTEX
  8
0
 10
227.380395
 20
73.297888
 42
-0.035169
  0
VERTEX
  8
0
 10
227.583974
 20
70.195628
 42
-0.087498
  0
VERTEX
  8
0
 10
227.222529
 20
68.201765
 42
-0.064536
  0
VERTEX
  8
0
 10
226.178943
 20
66.210738
 42
0.096117
  0
VERTEX
  8
0
 10
222.889638
 20
58.845546
 42
0.092009
  0
VERTEX
  8
0
 10
222.522306
 20
50.665559
 42
0.098000
  0
VERTEX
  8
0
 10
225.070868
 20
43.321086
 42
0.127650
  0
VERTEX
  8
0
 10
230.073424
 20
38.297556
 42
-0.037843
  0
VERTEX
  8
0
 10
231.193279
 20
37.516177
 42
-0.042075
  0
VERTEX
  8
0
 10
232.140318
 20
36.599762
 42
-0.046380
  0
VERTEX
  8
0
 10
232.797168
 20
35.689420
 42
-0.133877
  0
VERTEX
  8
0
 10
233.000000
 20
34.945467
 42
-0.185683
  0
VERTEX
  8
0
 10
232.693899
 20
34.149629
 42
-0.183831
  0
VERTEX
  8
0
 10
231.931913
 20
33.759853
 42
-0.058013
  0
VERTEX
  8
0
 10
230.333922
 20
33.770514
 42
-0.006598
  0
VERTEX
  8
0
 10
226.750000
 20
34.260089
 42
-0.004451
  0
VERTEX
  8
0
 10
224.327543
 20
34.645707
 42
-0.006714
  0
VERTEX
  8
0
 10
222.225152
 20
35.028688
 42
-0.003028
  0
VERTEX
  8
0
 10
220.447495
 20
35.388432
 42
-0.140524
  0
VERTEX
  8
0
 10
220.122859
 20
35.559488
 42
-0.159046
  0
VERTEX
  8
0
 10
219.942411
 20
35.896838
 42
-0.001173
  0
VERTEX
  8
0
 10
219.388829
 20
39.057630
 42
-0.004255
  0
VERTEX
  8
0
 10
218.791134
 20
42.702714
 42
-0.002697
  0
VERTEX
  8
0
 10
218.153634
 20
46.960474
 42
0.006492
  0
VERTEX
  8
0
 10
217.487024
 20
51.193001
 42
0.010631
  0
VERTEX
  8
0
 10
216.799871
 20
54.757139
 42
0.004498
  0
VERTEX
  8
0
 10
216.135362
 20
57.718764
 42
0.348424
  0
VERTEX
  8
0
 10
215.780774
 20
58.000000
 42
0.203907
  0
VERTEX
  8
0
 10
215.476566
 20
57.870557
 42
0.078099
  0
VERTEX
  8
0
 10
215.207567
 20
57.485937
 42
0.060623
  0
VERTEX
  8
0
 10
215.011577
 20
56.919911
 42
0.042496
  0
VERTEX
  8
0
 10
214.925836
 20
56.250000
 42
-0.053632
  0
VERTEX
  8
0
 10
214.785841
 20
55.320655
 42
-0.013272
  0
VERTEX
  8
0
 10
214.354637
 20
53.839063
 42
-0.013424
  0
VERTEX
  8
0
 10
213.767012
 20
52.159772
 42
-0.013088
  0
VERTEX
  8
0
 10
213.085473
 20
50.500000
 42
0.000000
  0
VERTEX
  8
0
 10
211.319274
 20
46.500000
 42
0.000000
  0
VERTEX
  8
0
 10
207.466495
 20
54.500000
 42
0.000000
  0
VERTEX
  8
0
 10
203.613717
 20
62.500000
 42
0.000000
  0
VERTEX
  8
0
 10
202.326764
 20
53.603239
 42
-0.004032
  0
VERTEX
  8
0
 10
201.800361
 20
50.160360
 42
-0.006168
  0
VERTEX
  8
0
 10
201.283156
 20
47.185204
 42
-0.002488
  0
VERTEX
  8
0
 10
200.797857
 20
44.654093
 42
-0.148831
  0
VERTEX
  8
0
 10
200.581264
 20
44.247931
 42
-0.202318
  0
VERTEX
  8
0
 10
200.190657
 20
44.089124
 42
-0.006440
  0
VERTEX
  8
0
 10
198.444560
 20
44.134486
 42
-0.011535
  0
VERTEX
  8
0
 10
196.349508
 20
44.264380
 42
-0.007639
  0
VERTEX
  8
0
 10
193.951294
 20
44.505653
 42
0.000000
  0
VERTEX
  8
0
 10
187.779870
 20
45.221923
 42
0.000000
  0
VERTEX
  8
0
 10
188.478493
 20
49.360961
 42
-0.000196
  0
VERTEX
  8
0
 10
188.762044
 20
51.036882
 42
-0.000220
  0
VERTEX
  8
0
 10
189.036316
 20
52.649798
 42
-0.000201
  0
VERTEX
  8
0
 10
189.271021
 20
54.023037
 42
-0.001179
  0
VERTEX
  8
0
 10
189.396422
 20
54.744735
 42
-0.097797
  0
VERTEX
  8
0
 10
189.653085
 20
55.407704
 42
-0.016933
  0
VERTEX
  8
0
 10
190.414165
 20
56.524458
 42
-0.017847
  0
VERTEX
  8
0
 10
191.412458
 20
57.790339
 42
-0.015134
  0
VERTEX
  8
0
 10
192.553115
 20
59.055440
 42
0.000000
  0
VERTEX
  8
0
 10
195.490502
 20
62.121411
 42
0.000000
  0
VERTEX
  8
0
 10
193.127961
 20
63.903479
 42
-0.041670
  0
VERTEX
  8
0
 10
192.113290
 20
64.810686
 42
-0.077883
  0
VERTEX
  8
0
 10
191.490422
 20
65.716240
 42
-0.094931
  0
VERTEX
  8
0
 10
191.247327
 20
66.638352
 42
-0.092836
  0
VERTEX
  8
0
 10
191.359191
 20
67.592773
 42
0.018462
  0
VERTEX
  8
0
 10
191.628246
 20
68.584607
 42
0.005889
  0
VERTEX
  8
0
 10
191.956360
 20
70.078539
 42
0.005868
  0
VERTEX
  8
0
 10
192.282984
 20
71.752620
 42
0.006514
  0
VERTEX
  8
0
 10
192.558302
 20
73.376720
 42
-0.001066
  0
VERTEX
  8
0
 10
192.812152
 20
74.979987
 42
-0.001048
  0
VERTEX
  8
0
 10
193.074298
 20
76.591493
 42
-0.001030
  0
VERTEX
  8
0
 10
193.309998
 20
78.003388
 42
-0.003996
  0
VERTEX
  8
0
 10
193.464829
 20
78.876720
 42
0.007930
  0
VERTEX
  8
0
 10
193.623465
 20
79.814374
 42
0.001402
  0
VERTEX
  8
0
 10
193.888102
 20
81.578102
 42
0.001518
  0
VERTEX
  8
0
 10
194.186298
 20
83.647785
 42
0.001366
  0
VERTEX
  8
0
 10
194.482816
 20
85.793415
 42
0.000000
  0
VERTEX
  8
0
 10
195.199618
 20
91.086829
 42
0.000000
  0
VERTEX
  8
0
 10
201.849809
 20
90.793415
 42
0.000000
  0
VERTEX
  8
0
 10
208.500000
 20
90.500000
 42
0.000000
  0
VERTEX
  8
0
 10
209.863167
 20
82.696501
 42
0.004577
  0
VERTEX
  8
0
 10
210.409936
 20
79.727135
 42
0.008038
  0
VERTEX
  8
0
 10
210.923981
 20
77.283356
 42
0.003161
  0
VERTEX
  8
0
 10
211.393931
 20
75.273738
 42
0.585968
  0
VERTEX
  8
0
 10
211.560213
 20
75.226880
 42
0.141988
  0
VERTEX
  8
0
 10
211.822597
 20
75.703417
 42
0.006981
  0
VERTEX
  8
0
 10
212.196067
 20
77.479526
 42
0.007086
  0
VERTEX
  8
0
 10
212.690262
 20
80.208931
 42
0.001486
  0
VERTEX
  8
0
 10
213.473179
 20
85.000000
 42
-0.005362
  0
VERTEX
  8
0
 10
214.557555
 20
91.327279
 42
-0.111182
  0
VERTEX
  8
0
 10
215.306523
 20
93.089361
 42
-0.225650
  0
VERTEX
  8
0
 10
216.613929
 20
93.809664
 42
-0.031205
  0
VERTEX
  8
0
 10
219.801177
 20
93.801088
 42
0.000000
  0
VERTEX
  8
0
 10
224.421003
 20
93.500000
 42
0.000000
  0
SEQEND
  0
POLYLINE
  8
0
 66
1
 70
1
  0
VERTEX
  8
0
 10
120.431130
 20
86.002142
 42
-0.009427
  0
VERTEX
  8
0
 10
120.650130
 20
83.248633
 42
-0.012936
  0
VERTEX
  8
0
 10
120.736190
 20
80.765525
 42
-0.009663
  0
VERTEX
  8
0
 10
120.714524
 20
78.712117
 42
-0.131678
  0
VERTEX
  8
0
 10
120.501324
 20
78.002142
 42
0.067514
  0
VERTEX
  8
0
 10
120.330576
 20
77.618504
 42
0.141027
  0
VERTEX
  8
0
 10
120.329369
 20
77.294379
 42
0.190763
  0
VERTEX
  8
0
 10
120.492640
 20
77.081153
 42
0.135907
  0
VERTEX
  8
0
 10
120.785684
 20
77.000000
 42
0.223033
  0
VERTEX
  8
0
 10
121.315995
 20
77.248937
 42
0.005775
  0
VERTEX
  8
0
 10
123.011741
 20
79.339580
 42
0.011157
  0
VERTEX
  8
0
 10
124.957716
 20
81.912085
 42
0.007259
  0
VERTEX
  8
0
 10
127.094701
 20
84.964528
 42
-0.006473
  0
VERTEX
  8
0
 10
129.214349
 20
88.002370
 42
-0.010443
  0
VERTEX
  8
0
 10
131.105608
 20
90.526458
 42
-0.004459
  0
VERTEX
  8
0
 10
132.754176
 20
92.595197
 42
-0.310433
  0
VERTEX
  8
0
 10
133.158432
 20
92.714528
 42
-0.100038
  0
VERTEX
  8
0
 10
133.586745
 20
92.472477
 42
-0.002506
  0
VERTEX
  8
0
 10
135.279766
 20
90.991155
 42
-0.005288
  0
VERTEX
  8
0
 10
137.247023
 20
89.214991
 42
-0.003568
  0
VERTEX
  8
0
 10
139.455385
 20
87.148980
 42
0.000000
  0
VERTEX
  8
0
 10
145.093906
 20
81.797961
 42
0.000000
  0
VERTEX
  8
0
 10
137.296953
 20
73.863494
 42
0.003020
  0
VERTEX
  8
0
 10
134.288906
 20
70.765179
 42
0.004553
  0
VERTEX
  8
0
 10
131.708950
 20
68.025985
 42
0.001893
  0
VERTEX
  8
0
 10
129.534869
 20
65.657266
 42
0.101276
  0
VERTEX
  8
0
 10
129.222876
 20
65.133142
 42
0.358686
  0
VERTEX
  8
0
 10
129.378080
 20
64.712816
 42
0.011122
  0
VERTEX
  8
0
 10
131.104676
 20
63.755961
 42
0.017084
  0
VERTEX
  8
0
 10
133.326611
 20
62.683622
 42
0.010399
  0
VERTEX
  8
0
 10
136.018157
 20
61.562493
 42
-0.019790
  0
VERTEX
  8
0
 10
139.511417
 20
60.029829
 42
-0.029314
  0
VERTEX
  8
0
 10
142.426448
 20
58.392982
 42
-0.031566
  0
VERTEX
  8
0
 10
144.963665
 20
56.529950
 42
-0.029329
  0
VERTEX
  8
0
 10
147.312873
 20
54.318877
 42
0.026487
  0
VERTEX
  8
0
 10
149.541390
 20
52.197402
 42
0.032661
  0
VERTEX
  8
0
 10
151.837755
 20
50.478593
 42
0.033318
  0
VERTEX
  8
0
 10
154.298218
 20
49.100296
 42
0.029605
  0
VERTEX
  8
0
 10
157.017591
 20
47.998921
 42
0.000000
  0
VERTEX
  8
0
 10
162.500000
 20
46.147818
 42
0.000000
  0
VERTEX
  8
0
 10
162.802260
 20
41.073909
 42
-0.017755
  0
VERTEX
  8
0
 10
162.849012
 20
39.125778
 42
-0.029526
  0
VERTEX
  8
0
 10
162.733289
 20
37.488159
 42
-0.030163
  0
VERTEX
  8
0
 10
162.500978
 20
36.279504
 42
-0.342692
  0
VERTEX
  8
0
 10
162.141063
 20
36.000000
 42
-0.112144
  0
VERTEX
  8
0
 10
161.434038
 20
36.160597
 42
-0.000820
  0
VERTEX
  8
0
 10
155.966425
 20
38.790625
 42
-0.003050
  0
VERTEX
  8
0
 10
149.712791
 20
41.858573
 42
-0.001944
  0
VERTEX
  8
0
 10
142.473958
 20
45.500000
 42
0.001274
  0
VERTEX
  8
0
 10
135.258040
 20
49.142018
 42
0.002041
  0
VERTEX
  8
0
 10
129.077929
 20
52.209995
 42
0.000372
  0
VERTEX
  8
0
 10
123.611214
 20
54.891011
 42
0.113456
  0
VERTEX
  8
0
 10
123.135154
 20
55.002110
 42
0.402132
  0
VERTEX
  8
0
 10
122.886107
 20
54.764755
 42
0.003550
  0
VERTEX
  8
0
 10
122.778913
 20
51.918605
 42
0.009453
  0
VERTEX
  8
0
 10
122.739457
 20
48.528942
 42
0.005664
  0
VERTEX
  8
0
 10
122.814338
 20
44.502110
 42
-0.003718
  0
VERTEX
  8
0
 10
122.955723
 20
38.215498
 42
-0.039213
  0
VERTEX
  8
0
 10
122.793224
 20
35.653268
 42
-0.133635
  0
VERTEX
  8
0
 10
122.276529
 20
34.456011
 42
-0.226671
  0
VERTEX
  8
0
 10
121.314338
 20
33.988994
 42
0.020581
  0
VERTEX
  8
0
 10
120.369249
 20
33.944332
 42
0.006128
  0
VERTEX
  8
0
 10
118.931399
 20
33.799145
 42
0.006136
  0
VERTEX
  8
0
 10
117.318781
 20
33.596246
 42
0.006594
  0
VERTEX
  8
0
 10
115.750000
 20
33.358152
 42
0.000000
  0
VERTEX
  8
0
 10
112.000000
 20
32.738315
 42
0.000000
  0
VERTEX
  8
0
 10
112.000000
 20
37.191019
 42
-0.028204
  0
VERTEX
  8
0
 10
112.115589
 20
39.238553
 42
-0.015346
  0
VERTEX
  8
0
 10
112.475852
 20
41.732288
 42
-0.015247
  0
VERTEX
  8
0
 10
112.999150
 20
44.253454
 42
-0.023316
  0
VERTEX
  8
0
 10
113.619920
 20
46.397927
 42
0.053749
  0
VERTEX
  8
0
 10
114.696236
 20
51.188544
 42
0.053779
  0
VERTEX
  8
0
 10
114.726445
 20
56.097578
 42
0.055470
  0
VERTEX
  8
0
 10
113.723416
 20
60.754911
 42
0.065507
  0
VERTEX
  8
0
 10
111.749086
 20
64.802971
 42
-0.035728
  0
VERTEX
  8
0
 10
110.479535
 20
67.055792
 42
-0.045927
  0
VERTEX
  8
0
 10
109.664655
 20
69.288435
 42
-0.037987
  0
VERTEX
  8
0
 10
109.175053
 20
71.945314
 42
-0.015893
  0
VERTEX
  8
0
 10
108.903910
 20
75.577554
 42
0.005957
  0
VERTEX
  8
0
 10
108.578324
 20
81.530404
 42
0.080636
  0
VERTEX
  8
0
 10
108.088758
 20
83.645314
 42
0.259702
  0
VERTEX
  8
0
 10
107.101411
 20
84.434347
 42
0.103352
  0
VERTEX
  8
0
 10
105.309136
 20
84.362740
 42
-0.024892
  0
VERTEX
  8
0
 10
103.921426
 20
84.087023
 42
-0.206543
  0
VERTEX
  8
0
 10
103.315043
 20
84.248985
 42
-0.233893
  0
VERTEX
  8
0
 10
103.060853
 20
84.784864
 42
-0.031920
  0
VERTEX
  8
0
 10
103.163394
 20
86.056995
 42
-0.121343
  0
VERTEX
  8
0
 10
103.684164
 20
87.339362
 42
-0.097996
  0
VERTEX
  8
0
 10
104.776835
 20
88.353562
 42
-0.051246
  0
VERTEX
  8
0
 10
106.781023
 20
89.322682
 42
-0.010574
  0
VERTEX
  8
0
 10
110.500000
 20
90.583446
 42
-0.003005
  0
VERTEX
  8
0
 10
113.262924
 20
91.437186
 42
-0.004055
  0
VERTEX
  8
0
 10
115.772982
 20
92.174129
 42
-0.002777
  0
VERTEX
  8
0
 10
117.884581
 20
92.762868
 42
-0.043551
  0
VERTEX
  8
0
 10
118.620790
 20
92.896306
 42
-0.334795
  0
VERTEX
  8
0
 10
119.124020
 20
92.585084
 42
-0.028507
  0
VERTEX
  8
0
 10
119.623010
 20
91.047429
 42
-0.026730
  0
VERTEX
  8
0
 10
120.075848
 20
88.851261
 42
-0.012920
  0
SEQEND
  0
POLYLINE
  8
0
 66
1
 70
1
  0
VERTEX
  8
0
 10
65.500000
 20
89.121160
 42
-0.043975
  0
VERTEX
  8
0
 10
68.848966
 20
87.212629
 42
-0.036613
  0
VERTEX
  8
0
 10
72.038662
 20
84.638147
 42
-0.038067
  0
VERTEX
  8
0
 10
74.626766
 20
81.817527
 42
-0.075687
  0
VERTEX
  8
0
 10
76.117557
 20
79.184900
 42
-0.083661
  0
VERTEX
  8
0
 10
76.986916
 20
74.834475
 42
-0.051164
  0
VERTEX
  8
0
 10
76.609792
 20
69.601067
 42
-0.050565
  0
VERTEX
  8
0
 10
75.159052
 20
64.463636
 42
-0.073492
  0
VERTEX
  8
0
 10
72.810414
 20
60.389897
 42
-0.018531
  0
VERTEX
  8
0
 10
70.365238
 20
57.526399
 42
-0.011627
  0
VERTEX
  8
0
 10
67.308529
 20
54.355540
 42
-0.009909
  0
VERTEX
  8
0
 10
64.350104
 20
51.540001
 42
-0.060055
  0
VERTEX
  8
0
 10
62.631732
 20
50.310970
 42
0.167547
  0
VERTEX
  8
0
 10
61.696178
 20
49.281987
 42
0.126070
  0
VERTEX
  8
0
 10
61.458288
 20
47.760006
 42
0.036927
  0
VERTEX
  8
0
 10
61.945099
 20
44.917039
 42
0.002758
  0
VERTEX
  8
0
 10
63.881732
 20
37.298448
 42
-0.002033
  0
VERTEX
  8
0
 10
65.076600
 20
32.626316
 42
-0.003000
  0
VERTEX
  8
0
 10
66.084009
 20
28.515247
 42
-0.001381
  0
VERTEX
  8
0
 10
66.911353
 20
25.006290
 42
-0.057260
  0
VERTEX
  8
0
 10
67.000000
 20
24.234753
 42
-0.303579
  0
VERTEX
  8
0
 10
66.259481
 20
23.127508
 42
-0.015697
  0
VERTEX
  8
0
 10
62.034475
 20
21.534995
 42
-0.017727
  0
VERTEX
  8
0
 10
57.726777
 20
20.232534
 42
-0.205768
  0
VERTEX
  8
0
 10
56.022469
 20
20.486113
 42
-0.063154
  0
VERTEX
  8
0
 10
55.631353
 20
20.802210
 42
-0.051554
  0
VERTEX
  8
0
 10
55.300350
 20
21.227012
 42
-0.053373
  0
VERTEX
  8
0
 10
55.075115
 20
21.690604
 42
-0.086620
  0
VERTEX
  8
0
 10
55.000000
 20
22.120942
 42
0.087289
  0
VERTEX
  8
0
 10
54.887022
 20
22.763161
 42
0.005968
  0
VERTEX
  8
0
 10
54.232815
 20
24.500118
 42
0.008384
  0
VERTEX
  8
0
 10
53.388670
 20
26.560102
 42
0.006190
  0
VERTEX
  8
0
 10
52.388305
 20
28.811925
 42
-0.000730
  0
VERTEX
  8
0
 10
51.258393
 20
31.282292
 42
-0.000548
  0
VERTEX
  8
0
 10
50.021862
 20
34.004128
 42
-0.000554
  0
VERTEX
  8
0
 10
48.864058
 20
36.567656
 42
-0.001273
  0
VERTEX
  8
0
 10
47.999814
 20
38.500000
 42
0.001582
  0
VERTEX
  8
0
 10
47.104910
 20
40.497584
 42
0.000584
  0
VERTEX
  8
0
 10
45.830945
 20
43.308596
 42
0.000579
  0
VERTEX
  8
0
 10
44.433007
 20
46.374178
 42
0.000696
  0
VERTEX
  8
0
 10
43.111508
 20
49.252668
 42
-0.002248
  0
VERTEX
  8
0
 10
41.918952
 20
51.871694
 42
-0.003469
  0
VERTEX
  8
0
 10
40.914006
 20
54.147337
 42
-0.001139
  0
VERTEX
  8
0
 10
40.063814
 20
56.121584
 42
-0.101436
  0
VERTEX
  8
0
 10
40.000000
 20
56.432899
 42
0.101716
  0
VERTEX
  8
0
 10
39.936111
 20
56.743706
 42
0.001177
  0
VERTEX
  8
0
 10
39.097544
 20
58.684624
 42
0.003535
  0
VERTEX
  8
0
 10
38.105289
 20
60.923077
 42
0.002293
  0
VERTEX
  8
0
 10
36.927811
 20
63.497940
 42
0.005056
  0
VERTEX
  8
0
 10
34.853883
 20
67.862352
 42
0.092554
  0
VERTEX
  8
0
 10
33.942093
 20
69.091344
 42
0.272802
  0
VERTEX
  8
0
 10
32.985187
 20
69.300582
 42
0.065762
  0
VERTEX
  8
0
 10
31.462994
 20
68.567710
 42
-0.015349
  0
VERTEX
  8
0
 10
29.422170
 20
67.318314
 42
-0.168872
  0
VERTEX
  8
0
 10
28.492778
 20
67.145292
 42
-0.226109
  0
VERTEX
  8
0
 10
27.798915
 20
67.615182
 42
-0.029462
  0
VERTEX
  8
0
 10
26.964606
 20
69.250000
 42
0.016781
  0
VERTEX
  8
0
 10
26.421993
 20
70.383303
 42
0.005515
  0
VERTEX
  8
0
 10
25.549812
 20
72.014062
 42
0.005486
  0
VERTEX
  8
0
 10
24.541485
 20
73.803565
 42
0.006183
  0
VERTEX
  8
0
 10
23.532729
 20
75.500000
 42
-0.010035
  0
VERTEX
  8
0
 10
22.592908
 20
77.108583
 42
-0.012692
  0
VERTEX
  8
0
 10
21.792512
 20
78.633653
 42
-0.010786
  0
VERTEX
  8
0
 10
21.186860
 20
79.932400
 42
-0.093655
  0
VERTEX
  8
0
 10
21.043372
 20
80.550734
 42
-0.281863
  0
VERTEX
  8
0
 10
21.732186
 20
81.787344
 42
-0.014490
  0
VERTEX
  8
0
 10
25.959668
 20
84.010471
 42
-0.020026
  0
VERTEX
  8
0
 10
31.320759
 20
86.373197
 42
-0.014226
  0
VERTEX
  8
0
 10
37.500000
 20
88.605084
 42
-0.041868
  0
VERTEX
  8
0
 10
44.702475
 20
90.325501
 42
-0.033101
  0
VERTEX
  8
0
 10
52.686467
 20
91.002612
 42
-0.034069
  0
VERTEX
  8
0
 10
60.119974
 20
90.632987
 42
-0.078232
  0
SEQEND
  0
POLYLINE
  8
0
 66
1
 70
1
  0
VERTEX
  8
0
 10
176.500000
 20
86.136516
 42
-0.027519
  0
VERTEX
  8
0
 10
180.942727
 20
83.812639
 42
-0.216112
  0
VERTEX
  8
0
 10
182.241035
 20
81.947739
 42
-0.209262
  0
VERTEX
  8
0
 10
181.715323
 20
79.703381
 42
-0.025738
  0
VERTEX
  8
0
 10
178.418167
 20
75.741844
 42
-0.005572
  0
VERTEX
  8
0
 10
176.324056
 20
73.524093
 42
-0.004536
  0
VERTEX
  8
0
 10
174.033603
 20
71.194599
 42
-0.004585
  0
VERTEX
  8
0
 10
171.884857
 20
69.087526
 42
-0.011927
  0
VERTEX
  8
0
 10
170.288954
 20
67.622747
 42
0.010774
  0
VERTEX
  8
0
 10
169.028935
 20
66.471595
 42
0.015404
  0
VERTEX
  8
0
 10
167.966130
 20
65.393302
 42
0.011241
  0
VERTEX
  8
0
 10
167.143088
 20
64.464084
 42
0.177427
  0
VERTEX
  8
0
 10
167.000000
 20
64.073547
 42
0.446778
  0
VERTEX
  8
0
 10
167.820908
 20
63.338231
 42
0.040456
  0
VERTEX
  8
0
 10
170.864845
 20
63.926028
 42
0.040045
  0
VERTEX
  8
0
 10
174.206244
 20
65.152069
 42
0.088651
  0
VERTEX
  8
0
 10
176.426045
 20
66.698773
 42
0.000000
  0
VERTEX
  8
0
 10
178.913132
 20
69.185859
 42
0.000000
  0
VERTEX
  8
0
 10
182.938540
 20
65.842930
 42
-0.029665
  0
VERTEX
  8
0
 10
186.336672
 20
62.662286
 42
-0.266468
  0
VERTEX
  8
0
 10
186.800195
 20
60.754106
 42
-0.183697
  0
VERTEX
  8
0
 10
185.417093
 20
58.919081
 42
-0.014104
  0
VERTEX
  8
0
 10
180.000000
 20
55.720577
 42
-0.041025
  0
VERTEX
  8
0
 10
175.244619
 20
53.578940
 42
-0.034446
  0
VERTEX
  8
0
 10
169.918198
 20
52.091707
 42
-0.035303
  0
VERTEX
  8
0
 10
164.991055
 20
51.433304
 42
-0.106799
  0
VERTEX
  8
0
 10
161.662724
 20
51.938133
 42
0.016692
  0
VERTEX
  8
0
 10
160.641304
 20
52.287925
 42
0.030186
  0
VERTEX
  8
0
 10
159.782175
 20
52.494716
 42
0.034726
  0
VERTEX
  8
0
 10
159.156014
 20
52.561610
 42
0.425094
  0
VERTEX
  8
0
 10
159.000000
 20
52.411264
 42
-0.520929
  0
VERTEX
  8
0
 10
158.830937
 20
52.293029
 42
-0.013492
  0
VERTEX
  8
0
 10
157.820662
 20
52.693255
 42
-0.017371
  0
VERTEX
  8
0
 10
156.525480
 20
53.301278
 42
-0.009597
  0
VERTEX
  8
0
 10
154.985233
 20
54.128456
 42
-0.115289
  0
VERTEX
  8
0
 10
149.145609
 20
59.477687
 42
-0.121777
  0
VERTEX
  8
0
 10
146.428573
 20
66.756252
 42
-0.119813
  0
VERTEX
  8
0
 10
147.397408
 20
74.556234
 42
-0.109240
  0
VERTEX
  8
0
 10
151.843631
 20
81.347309
 42
-0.072678
  0
VERTEX
  8
0
 10
157.302468
 20
85.314025
 42
-0.072990
  0
VERTEX
  8
0
 10
163.660234
 20
87.545646
 42
-0.074424
  0
VERTEX
  8
0
 10
170.278798
 20
87.832238
 42
-0.080577
  0
SEQEND
  0
POLYLINE
  8
0
 66
1
 70
1
  0
VERTEX
  8
0
 10
268.883617
 20
84.931540
 42
0.000000
  0
VERTEX
  8
0
 10
273.720985
 20
83.894110
 42
0.000000
  0
VERTEX
  8
0
 10
276.584129
 20
69.935454
 42
0.004158
  0
VERTEX
  8
0
 10
278.500238
 20
60.973137
 42
0.082700
  0
VERTEX
  8
0
 10
279.547242
 20
58.381651
 42
0.647927
  0
VERTEX
  8
0
 10
280.430085
 20
58.495299
 42
0.033593
  0
VERTEX
  8
0
 10
281.290580
 20
62.241584
 42
-0.011925
  0
VERTEX
  8
0
 10
281.537150
 20
63.577889
 42
-0.001756
  0
VERTEX
  8
0
 10
282.109916
 20
66.267458
 42
-0.001981
  0
VERTEX
  8
0
 10
282.810666
 20
69.441402
 42
-0.001701
  0
VERTEX
  8
0
 10
283.572514
 20
72.775294
 42
0.000000
  0
VERTEX
  8
0
 10
285.493193
 20
81.050587
 42
0.000000
  0
VERTEX
  8
0
 10
288.496597
 20
80.443120
 42
-0.006840
  0
VERTEX
  8
0
 10
294.202021
 20
79.207668
 42
-0.043104
  0
VERTEX
  8
0
 10
297.031457
 20
78.291695
 42
-0.115797
  0
VERTEX
  8
0
 10
298.325150
 20
77.348834
 42
-0.260588
  0
VERTEX
  8
0
 10
298.559188
 20
76.197774
 42
-0.003186
  0
VERTEX
  8
0
 10
298.143031
 20
74.923310
 42
-0.000044
  0
VERTEX
  8
0
 10
295.570553
 20
67.214346
 42
-0.000124
  0
VERTEX
  8
0
 10
292.585402
 20
58.278752
 42
-0.000082
  0
VERTEX
  8
0
 10
289.146828
 20
48.000000
 42
-0.001479
  0
VERTEX
  8
0
 10
283.565618
 20
31.487839
 42
-0.018777
  0
VERTEX
  8
0
 10
281.217396
 20
25.369380
 42
-0.055274
  0
VERTEX
  8
0
 10
279.569576
 20
22.453947
 42
-0.259436
  0
VERTEX
  8
0
 10
277.888452
 20
21.666121
 42
-0.027368
  0
VERTEX
  8
0
 10
276.776940
 20
21.804842
 42
-0.013799
  0
VERTEX
  8
0
 10
275.393795
 20
22.094563
 42
-0.013661
  0
VERTEX
  8
0
 10
273.977193
 20
22.473530
 42
-0.019730
  0
VERTEX
  8
0
 10
272.750000
 20
22.891370
 42
0.000000
  0
VERTEX
  8
0
 10
270.000000
 20
23.950498
 42
0.000000
  0
VERTEX
  8
0
 10
269.898815
 20
40.225249
 42
0.000000
  0
VERTEX
  8
0
 10
269.797631
 20
56.500000
 42
0.000000
  0
VERTEX
  8
0
 10
267.626011
 20
44.509303
 42
-0.007784
  0
VERTEX
  8
0
 10
265.931137
 20
35.916076
 42
-0.111171
  0
VERTEX
  8
0
 10
264.632634
 20
33.097673
 42
-0.232367
  0
VERTEX
  8
0
 10
262.571708
 20
32.074029
 42
-0.047489
  0
VERTEX
  8
0
 10
258.400136
 20
32.452757
 42
-0.028610
  0
VERTEX
  8
0
 10
256.414073
 20
32.944361
 42
-0.155522
  0
VERTEX
  8
0
 10
255.515679
 20
33.570163
 42
-0.141918
  0
VERTEX
  8
0
 10
255.101570
 20
34.632015
 42
-0.022477
  0
VERTEX
  8
0
 10
255.000000
 20
36.890325
 42
-0.035273
  0
VERTEX
  8
0
 10
255.127640
 20
38.697388
 42
-0.053130
  0
VERTEX
  8
0
 10
255.513666
 20
40.227078
 42
-0.059281
  0
VERTEX
  8
0
 10
256.170041
 20
41.513569
 42
-0.061334
  0
VERTEX
  8
0
 10
257.103643
 20
42.593795
 42
0.055669
  0
VERTEX
  8
0
 10
259.492200
 20
45.295218
 42
0.033121
  0
VERTEX
  8
0
 10
261.726834
 20
48.968244
 42
0.033292
  0
VERTEX
  8
0
 10
263.413565
 20
52.809219
 42
0.069425
  0
VERTEX
  8
0
 10
264.088983
 20
56.000000
 42
0.037454
  0
VERTEX
  8
0
 10
264.068982
 20
60.079609
 42
0.037079
  0
VERTEX
  8
0
 10
263.441484
 20
64.124654
 42
0.039708
  0
VERTEX
  8
0
 10
262.335213
 20
67.609382
 42
0.091063
  0
VERTEX
  8
0
 10
260.858281
 20
69.921742
 42
-0.057480
  0
VERTEX
  8
0
 10
259.911806
 20
71.205801
 42
-0.067913
  0
VERTEX
  8
0
 10
259.345928
 20
72.603303
 42
-0.054567
  0
VERTEX
  8
0
 10
259.101502
 20
74.336552
 42
-0.023127
  0
VERTEX
  8
0
 10
259.137164
 20
76.686911
 42
0.015544
  0
VERTEX
  8
0
 10
259.214568
 20
79.237984
 42
0.082443
  0
VERTEX
  8
0
 10
258.985531
 20
80.611217
 42
0.141496
  0
VERTEX
  8
0
 10
258.388114
 20
81.464347
 42
0.081292
  0
VERTEX
  8
0
 10
257.288107
 20
82.089126
 42
-0.055747
  0
VERTEX
  8
0
 10
256.310515
 20
82.580421
 42
-0.127245
  0
VERTEX
  8
0
 10
255.757576
 20
83.185266
 42
-0.128789
  0
VERTEX
  8
0
 10
255.571054
 20
83.977239
 42
-0.057792
  0
VERTEX
  8
0
 10
255.721709
 20
85.043817
 42
-0.186386
  0
VERTEX
  8
0
 10
256.631352
 20
86.306417
 42
-0.147675
  0
VERTEX
  8
0
 10
258.258218
 20
86.782521
 42
-0.046174
  0
VERTEX
  8
0
 10
261.407819
 20
86.463921
 42
-0.004542
  0
SEQEND
  0
POLYLINE
  8
0
 66
1
 70
1
  0
VERTEX
  8
0
 10
252.789838
 20
71.095171
 42
-0.065617
  0
VERTEX
  8
0
 10
255.844228
 20
68.981418
 42
-0.072859
  0
VERTEX
  8
0
 10
258.123242
 20
66.214063
 42
-0.072408
  0
VERTEX
  8
0
 10
259.522692
 20
62.893895
 42
-0.063670
  0
VERTEX
  8
0
 10
260.000000
 20
59.160808
 42
-0.036442
  0
VERTEX
  8
0
 10
259.735484
 20
55.536343
 42
-0.059442
  0
VERTEX
  8
0
 10
258.930693
 20
52.564317
 42
-0.055940
  0
VERTEX
  8
0
 10
257.407911
 20
49.743143
 42
-0.028461
  0
VERTEX
  8
0
 10
254.921982
 20
46.563924
 42
-0.109047
  0
VERTEX
  8
0
 10
247.943844
 20
41.443641
 42
-0.117979
  0
VERTEX
  8
0
 10
239.660186
 20
39.928409
 42
-0.131872
  0
VERTEX
  8
0
 10
232.264952
 20
42.347834
 42
-0.154147
  0
VERTEX
  8
0
 10
227.600897
 20
48.039438
 42
-0.015500
  0
VERTEX
  8
0
 10
226.470193
 20
51.140739
 42
-0.066559
  0
VERTEX
  8
0
 10
226.108011
 20
53.068699
 42
-0.065957
  0
VERTEX
  8
0
 10
226.263377
 20
55.032444
 42
-0.015051
  0
VERTEX
  8
0
 10
227.060128
 20
58.277334
 42
-0.092163
  0
VERTEX
  8
0
 10
229.691633
 20
63.660450
 42
-0.066811
  0
VERTEX
  8
0
 10
234.356568
 20
68.452915
 42
-0.067347
  0
VERTEX
  8
0
 10
240.073234
 20
71.809840
 42
-0.097760
  0
VERTEX
  8
0
 10
245.789838
 20
72.978038
 42
-0.044805
  0
VERTEX
  8
0
 10
247.315821
 20
72.851282
 42
-0.022588
  0
VERTEX
  8
0
 10
249.203146
 20
72.434005
 42
-0.022234
  0
VERTEX
  8
0
 10
251.128703
 20
71.823086
 42
-0.030668
  0
SEQEND
  0
POLYLINE
  8
0
 66
1
 70
1
  0
VERTEX
  8
0
 10
142.000000
 20
67.500000
 42
-0.010550
  0
VERTEX
  8
0
 10
141.945185
 20
64.902434
 42
-0.235417
  0
VERTEX
  8
0
 10
141.591380
 20
64.261837
 42
-0.235433
  0
VERTEX
  8
0
 10
140.866886
 20
64.158759
 42
-0.010551
  0
VERTEX
  8
0
 10
138.419528
 20
65.030595
 42
0.000000
  0
VERTEX
  8
0
 10
135.708857
 20
66.061191
 42
0.000000
  0
VERTEX
  8
0
 10
138.028743
 20
68.530595
 42
-0.022085
  0
VERTEX
  8
0
 10
140.108435
 20
70.557095
 42
-0.250606
  0
VERTEX
  8
0
 10
141.187838
 20
70.818025
 42
-0.308765
  0
VERTEX
  8
0
 10
141.847366
 20
70.062904
 42
-0.029751
  0
SEQEND
  0
POLYLINE
  8
0
 66
1
 70
1
  0
VERTEX
  8
0
 10
102.928915
 20
67.248446
 42
-0.124464
  0
VERTEX
  8
0
 10
108.293920
 20
62.550556
 42
-0.124600
  0
VERTEX
  8
0
 10
110.778500
 20
55.869142
 42
-0.114404
  0
VERTEX
  8
0
 10
109.873676
 20
48.347527
 42
-0.093520
  0
VERTEX
  8
0
 10
105.738822
 20
41.355315
 42
-0.120683
  0
VERTEX
  8
0
 10
96.803727
 20
35.109629
 42
-0.150021
  0
VERTEX
  8
0
 10
86.739278
 20
34.383390
 42
-0.174083
  0
VERTEX
  8
0
 10
79.023169
 20
39.334605
 42
-0.165019
  0
VERTEX
  8
0
 10
76.006589
 20
48.184900
 42
-0.031475
  0
VERTEX
  8
0
 10
76.254747
 20
52.213442
 42
-0.061229
  0
VERTEX
  8
0
 10
77.040533
 20
55.332995
 42
-0.059595
  0
VERTEX
  8
0
 10
78.575132
 20
58.223197
 42
-0.028351
  0
VERTEX
  8
0
 10
81.174435
 20
61.545889
 42
-0.068826
  0
VERTEX
  8
0
 10
86.092163
 20
65.797050
 42
-0.079926
  0
VERTEX
  8
0
 10
91.743973
 20
68.293101
 42
-0.085839
  0
VERTEX
  8
0
 10
97.550099
 20
68.788441
 42
-0.096648
  0
SEQEND
  0
POLYLINE
  8
0
 66
1
 70
1
  0
VERTEX
  8
0
 10
94.000000
 20
116.000000
 42
0.226478
  0
VERTEX
  8
0
 10
94.182831
 20
115.617064
 42
0.074992
  0
VERTEX
  8
0
 10
94.734375
 20
115.293750
 42
0.057076
  0
VERTEX
  8
0
 10
95.542644
 20
115.073116
 42
0.038131
  0
VERTEX
  8
0
 10
96.500000
 20
115.000000
 42
0.038131
  0
VERTEX
  8
0
 10
97.457356
 20
115.073116
 42
0.057076
  0
VERTEX
  8
0
 10
98.265625
 20
115.293750
 42
0.074992
  0
VERTEX
  8
0
 10
98.817169
 20
115.617064
 42
0.226478
  0
VERTEX
  8
0
 10
99.000000
 20
116.000000
 42
0.226478
  0
VERTEX
  8
0
 10
98.817169
 20
116.382936
 42
0.074992
  0
VERTEX
  8
0
 10
98.265625
 20
116.706250
 42
0.057076
  0
VERTEX
  8
0
 10
97.457356
 20
116.926884
 42
0.038131
  0
VERTEX
  8
0
 10
96.500000
 20
117.000000
 42
0.038131
  0
VERTEX
  8
0
 10
95.542644
 20
116.926884
 42
0.057076
  0
VERTEX
  8
0
 10
94.734375
 20
116.706250
 42
0.074992
  0
VERTEX
  8
0
 10
94.182831
 20
116.382936
 42
0.226478
  0
SEQEND
  0
POLYLINE
  8
0
 66
1
 70
1
  0
VERTEX
  8
0
 10
120.000000
 20
116.138672
 42
0.273434
  0
VERTEX
  8
0
 10
120.174877
 20
115.842802
 42
0.082278
  0
VERTEX
  8
0
 10
120.688011
 20
115.661881
 42
0.057078
  0
VERTEX
  8
0
 10
121.444582
 20
115.615861
 42
0.033913
  0
VERTEX
  8
0
 10
122.342166
 20
115.725077
 42
-0.066026
  0
VERTEX
  8
0
 10
123.391326
 20
115.784967
 42
-0.054788
  0
VERTEX
  8
0
 10
124.491614
 20
115.579850
 42
-0.055016
  0
VERTEX
  8
0
 10
125.516328
 20
115.142140
 42
-0.068051
  0
VERTEX
  8
0
 10
126.342166
 20
114.514977
 42
0.012509
  0
VERTEX
  8
0
 10
127.254678
 20
113.647014
 42
0.156058
  0
VERTEX
  8
0
 10
127.683970
 20
113.452337
 42
0.388278
  0
VERTEX
  8
0
 10
127.928555
 20
113.628649
 42
0.051416
  0
VERTEX
  8
0
 10
128.000000
 20
114.321583
 42
0.096576
  0
VERTEX
  8
0
 10
127.882004
 20
114.926782
 42
0.066863
  0
VERTEX
  8
0
 10
127.535350
 20
115.534146
 42
0.064309
  0
VERTEX
  8
0
 10
127.022911
 20
116.051522
 42
0.073970
  0
VERTEX
  8
0
 10
126.418213
 20
116.393011
 42
0.059079
  0
VERTEX
  8
0
 10
124.518893
 20
116.874726
 42
0.042519
  0
VERTEX
  8
0
 10
122.331631
 20
116.974051
 42
0.042236
  0
VERTEX
  8
0
 10
120.491172
 20
116.744605
 42
0.354397
  0
SEQEND
  0
POLYLINE
  8
0
 66
1
 70
1
  0
VERTEX
  8
0
 10
75.500000
 20
110.805055
 42
0.076609
  0
VERTEX
  8
0
 10
73.225442
 20
109.007581
 42
0.130490
  0
VERTEX
  8
0
 10
72.093152
 20
106.882688
 42
0.147244
  0
VERTEX
  8
0
 10
72.231730
 20
104.661341
 42
0.108095
  0
VERTEX
  8
0
 10
73.571429
 20
102.571429
 42
0.117346
  0
VERTEX
  8
0
 10
75.316187
 20
101.497443
 42
0.068367
  0
VERTEX
  8
0
 10
77.745952
 20
101.051208
 42
0.069627
  0
VERTEX
  8
0
 10
80.147462
 20
101.277428
 42
0.138997
  0
VERTEX
  8
0
 10
81.800000
 20
102.200000
 42
0.138143
  0
VERTEX
  8
0
 10
82.816615
 20
104.013846
 42
0.090171
  0
VERTEX
  8
0
 10
82.952826
 20
106.424417
 42
0.088024
  0
VERTEX
  8
0
 10
82.225989
 20
108.782390
 42
0.121894
  0
VERTEX
  8
0
 10
80.777494
 20
110.443296
 42
0.016031
  0
VERTEX
  8
0
 10
79.055355
 20
111.569015
 42
0.120188
  0
VERTEX
  8
0
 10
78.132998
 20
111.862102
 42
0.127747
  0
VERTEX
  8
0
 10
77.204399
 20
111.687672
 42
0.019016
  0
SEQEND
  0
POLYLINE
  8
0
 66
1
 70
1
  0
VERTEX
  8
0
 10
94.368850
 20
109.199424
 42
0.025040
  0
VERTEX
  8
0
 10
92.788068
 20
108.236042
 42
0.102714
  0
VERTEX
  8
0
 10
92.011860
 20
107.433451
 42
0.152811
  0
VERTEX
  8
0
 10
91.781068
 20
106.568323
 42
0.079893
  0
VERTEX
  8
0
 10
92.006988
 20
105.465282
 42
0.065912
  0
VERTEX
  8
0
 10
93.031377
 20
103.559017
 42
0.075883
  0
VERTEX
  8
0
 10
94.476743
 20
102.086848
 42
0.090363
  0
VERTEX
  8
0
 10
96.058745
 20
101.297377
 42
0.163700
  0
VERTEX
  8
0
 10
97.488749
 20
101.357309
 42
0.153540
  0
VERTEX
  8
0
 10
98.787394
 20
102.388510
 42
0.022149
  0
VERTEX
  8
0
 10
100.580477
 20
105.308532
 42
0.017866
  0
VERTEX
  8
0
 10
102.132898
 20
108.359560
 42
0.328708
  0
VERTEX
  8
0
 10
101.929224
 20
109.363215
 42
0.121798
  0
VERTEX
  8
0
 10
100.525699
 20
110.117287
 42
0.068174
  0
VERTEX
  8
0
 10
98.589442
 20
110.339918
 42
0.061190
  0
VERTEX
  8
0
 10
96.431290
 20
110.027225
 42
0.057850
  0
SEQEND
  0
POLYLINE
  8
0
 66
1
 70
1
  0
VERTEX
  8
0
 10
70.000000
 20
99.622445
 42
0.184603
  0
VERTEX
  8
0
 10
70.081150
 20
99.410139
 42
0.013803
  0
VERTEX
  8
0
 10
70.514062
 20
98.952641
 42
0.017649
  0
VERTEX
  8
0
 10
71.079598
 20
98.425681
 42
0.012436
  0
VERTEX
  8
0
 10
71.750000
 20
97.872445
 42
0.001576
  0
VERTEX
  8
0
 10
72.879507
 20
96.992360
 42
0.377591
  0
VERTEX
  8
0
 10
73.000000
 20
97.000000
 42
0.377591
  0
VERTEX
  8
0
 10
73.007640
 20
97.120493
 42
0.001576
  0
VERTEX
  8
0
 10
72.127555
 20
98.250000
 42
0.017685
  0
VERTEX
  8
0
 10
71.236680
 20
99.306759
 42
0.065617
  0
VERTEX
  8
0
 10
70.573889
 20
99.869516
 42
0.241985
  0
VERTEX
  8
0
 10
70.193395
 20
99.906950
 42
0.307699
  0
SEQEND
  0
POLYLINE
  8
0
 66
1
 70
1
  0
VERTEX
  8
0
 10
306.697101
 20
52.997116
 42
0.000000
  0
VERTEX
  8
0
 10
298.894202
 20
29.062114
 42
0.000000
  0
VERTEX
  8
0
 10
301.197101
 20
25.946702
 42
-0.039863
  0
VERTEX
  8
0
 10
302.262093
 20
24.236129
 42
-0.049666
  0
VERTEX
  8
0
 10
302.952658
 20
22.496748
 42
-0.046346
  0
VERTEX
  8
0
 10
303.317249
 20
20.559836
 42
-0.028811
  0
VERTEX
  8
0
 10
303.400127
 20
18.247278
 42
-0.028586
  0
VERTEX
  8
0
 10
303.195258
 20
15.657452
 42
-0.076351
  0
VERTEX
  8
0
 10
302.669706
 20
13.886621
 42
-0.072830
  0
VERTEX
  8
0
 10
301.620826
 20
12.307517
 42
-0.024321
  0
VERTEX
  8
0
 10
299.664812
 20
10.331633
 42
-0.029116
  0
VERTEX
  8
0
 10
298.067237
 20
9.030185
 42
-0.031335
  0
VERTEX
  8
0
 10
296.366689
 20
7.957527
 42
-0.033622
  0
VERTEX
  8
0
 10
294.779441
 20
7.224058
 42
-0.091669
  0
VERTEX
  8
0
 10
293.567600
 20
7.000000
 42
0.064847
  0
VERTEX
  8
0
 10
292.309093
 20
6.836089
 42
0.019188
  0
VERTEX
  8
0
 10
290.447805
 20
6.265625
 42
0.018908
  0
VERTEX
  8
0
 10
288.384749
 20
5.456926
 42
0.019326
  0
VERTEX
  8
0
 10
286.403975
 20
4.500000
 42
-0.049929
  0
VERTEX
  8
0
 10
282.021944
 20
2.704304
 42
-0.078967
  0
VERTEX
  8
0
 10
278.005584
 20
2.172958
 42
-0.056291
  0
VERTEX
  8
0
 10
273.124617
 20
2.853530
 42
-0.014750
  0
VERTEX
  8
0
 10
265.518901
 20
5.044727
 42
-0.009547
  0
VERTEX
  8
0
 10
260.426438
 20
6.783868
 42
-0.034843
  0
VERTEX
  8
0
 10
257.308050
 20
8.168402
 42
-0.052215
  0
VERTEX
  8
0
 10
255.121164
 20
9.638472
 42
-0.050373
  0
VERTEX
  8
0
 10
253.256943
 20
11.545829
 42
0.070029
  0
VERTEX
  8
0
 10
250.604547
 20
14.055041
 42
0.092907
  0
VERTEX
  8
0
 10
247.594887
 20
15.444644
 42
0.078279
  0
VERTEX
  8
0
 10
243.893563
 20
15.782514
 42
0.036530
  0
VERTEX
  8
0
 10
239.110057
 20
15.117023
 42
-0.038165
  0
VERTEX
  8
0
 10
235.846088
 20
14.673798
 42
-0.032465
  0
VERTEX
  8
0
 10
232.368761
 20
14.695471
 42
-0.020104
  0
VERTEX
  8
0
 10
227.654452
 20
15.222548
 42
-0.004801
  0
VERTEX
  8
0
 10
219.868798
 20
16.488139
 42
-0.004271
  0
VERTEX
  8
0
 10
211.374615
 20
18.027584
 42
-0.030971
  0
VERTEX
  8
0
 10
207.355355
 20
19.052814
 42
-0.061699
  0
VERTEX
  8
0
 10
204.751288
 20
20.262627
 42
-0.052954
  0
VERTEX
  8
0
 10
202.370284
 20
22.125726
 42
0.040938
  0
VERTEX
  8
0
 10
200.238945
 20
23.877455
 42
0.062290
  0
VERTEX
  8
0
 10
198.117780
 20
24.986340
 42
0.042235
  0
VERTEX
  8
0
 10
195.243082
 20
25.790795
 42
0.009799
  0
VERTEX
  8
0
 10
190.290840
 20
26.634985
 42
0.003993
  0
VERTEX
  8
0
 10
182.044763
 20
27.807636
 42
0.052143
  0
VERTEX
  8
0
 10
178.957546
 20
27.897448
 42
0.201946
  0
VERTEX
  8
0
 10
177.563971
 20
27.183167
 42
0.176454
  0
VERTEX
  8
0
 10
177.000000
 20
25.634859
 42
-0.108407
  0
VERTEX
  8
0
 10
176.470127
 20
23.219661
 42
-0.063595
  0
VERTEX
  8
0
 10
174.894055
 20
20.699962
 42
-0.057436
  0
VERTEX
  8
0
 10
172.520975
 20
18.398528
 42
-0.053115
  0
VERTEX
  8
0
 10
169.626069
 20
16.626848
 42
-0.069862
  0
VERTEX
  8
0
 10
165.112835
 20
15.213072
 42
-0.081451
  0
VERTEX
  8
0
 10
160.623868
 20
15.206204
 42
-0.057241
  0
VERTEX
  8
0
 10
155.216717
 20
16.733979
 42
-0.017948
  0
VERTEX
  8
0
 10
147.540116
 20
20.214007
 42
0.000000
  0
VERTEX
  8
0
 10
137.056188
 20
25.428014
 42
0.000000
  0
VERTEX
  8
0
 10
134.278094
 20
22.767055
 42
-0.028855
  0
VERTEX
  8
0
 10
132.960714
 20
21.643468
 42
-0.017591
  0
VERTEX
  8
0
 10
131.287940
 20
20.466098
 42
-0.017608
  0
VERTEX
  8
0
 10
129.541856
 20
19.412528
 42
-0.029633
  0
VERTEX
  8
0
 10
128.000000
 20
18.670677
 42
-0.049249
  0
VERTEX
  8
0
 10
123.075576
 20
17.196975
 42
-0.015612
  0
VERTEX
  8
0
 10
115.499208
 20
15.965437
 42
-0.015761
  0
VERTEX
  8
0
 10
107.824434
 20
15.207803
 42
-0.045789
  0
VERTEX
  8
0
 10
102.500000
 20
15.338996
 42
0.011870
  0
VERTEX
  8
0
 10
100.090816
 20
15.562262
 42
0.005308
  0
VERTEX
  8
0
 10
96.912500
 20
15.746984
 42
0.005250
  0
VERTEX
  8
0
 10
93.545698
 20
15.871404
 42
0.007098
  0
VERTEX
  8
0
 10
90.500000
 20
15.908691
 42
0.009660
  0
VERTEX
  8
0
 10
86.240169
 20
15.818062
 42
0.067205
  0
VERTEX
  8
0
 10
84.192299
 20
15.456405
 42
0.107143
  0
VERTEX
  8
0
 10
82.744482
 20
14.622666
 42
0.041904
  0
VERTEX
  8
0
 10
81.162009
 20
12.927687
 42
-0.056879
  0
VERTEX
  8
0
 10
78.631475
 20
10.374594
 42
-0.048261
  0
VERTEX
  8
0
 10
75.453074
 20
8.293320
 42
-0.030566
  0
VERTEX
  8
0
 10
70.769640
 20
6.189482
 42
-0.007959
  0
VERTEX
  8
0
 10
63.000000
 20
3.395848
 42
0.000000
  0
VERTEX
  8
0
 10
53.500000
 20
0.149869
 42
0.000000
  0
VERTEX
  8
0
 10
184.250000
 20
0.074935
 42
0.000000
  0
VERTEX
  8
0
 10
315.000000
 20
0.000000
 42
0.000000
  0
VERTEX
  8
0
 10
315.000000
 20
38.500000
 42
0.000608
  0
VERTEX
  8
0
 10
314.982037
 20
53.260543
 42
0.001016
  0
VERTEX
  8
0
 10
314.926562
 20
65.680655
 42
0.000042
  0
VERTEX
  8
0
 10
314.852854
 20
76.876828
 42
0.452303
  0
VERTEX
  8
0
 10
314.750000
 20
76.966059
 42
0.285223
  0
VERTEX
  8
0
 10
314.615631
 20
76.855017
 42
0.000088
  0
VERTEX
  8
0
 10
312.281336
 20
69.911181
 42
0.001401
  0
VERTEX
  8
0
 10
309.706976
 20
62.177061
 42
0.000845
  0
SEQEND
  0
POLYLINE
  8
0
 66
1
 70
1
  0
VERTEX
  8
0
 10
0.000000
 20
36.696468
 42
0.000000
  0
VERTEX
  8
0
 10
0.000000
 20
0.000000
 42
0.000000
  0
VERTEX
  8
0
 10
22.555764
 20
0.000000
 42
0.000000
  0
VERTEX
  8
0
 10
45.111527
 20
0.000000
 42
0.000000
  0
VERTEX
  8
0
 10
42.317846
 20
2.403023
 42
-0.083500
  0
VERTEX
  8
0
 10
40.618697
 20
4.445822
 42
-0.012057
  0
VERTEX
  8
0
 10
37.995595
 20
9.212276
 42
-0.010942
  0
VERTEX
  8
0
 10
34.699959
 20
15.912898
 42
-0.004487
  0
VERTEX
  8
0
 10
30.509823
 20
25.140632
 42
0.003388
  0
VERTEX
  8
0
 10
25.802583
 20
35.567965
 42
0.015218
  0
VERTEX
  8
0
 10
22.823600
 20
41.561744
 42
0.022841
  0
VERTEX
  8
0
 10
20.636315
 20
45.232594
 42
0.136034
  0
VERTEX
  8
0
 10
18.971580
 20
46.684891
 42
-0.067480
  0
VERTEX
  8
0
 10
16.234654
 20
48.484685
 42
-0.046494
  0
VERTEX
  8
0
 10
13.670770
 20
51.174567
 42
-0.027814
  0
VERTEX
  8
0
 10
10.643864
 20
55.478902
 42
-0.006690
  0
VERTEX
  8
0
 10
6.127973
 20
62.946468
 42
0.000000
  0
VERTEX
  8
0
 10
0.000000
 20
73.392937
 42
0.000000
  0
SEQEND
  0
POLYLINE
  8
0
 66
1
 70
1
  0
VERTEX
  8
0
 10
287.078947
 20
18.416667
 42
0.018894
  0
VERTEX
  8
0
 10
287.137993
 20
17.670344
 42
0.168741
  0
VERTEX
  8
0
 10
287.279315
 20
17.378580
 42
0.470617
  0
VERTEX
  8
0
 10
287.461564
 20
17.395823
 42
0.054073
  0
VERTEX
  8
0
 10
287.683114
 20
17.812500
 42
0.051402
  0
VERTEX
  8
0
 10
287.839148
 20
18.359369
 42
0.054150
  0
VERTEX
  8
0
 10
287.876576
 20
18.916927
 42
0.060344
  0
VERTEX
  8
0
 10
287.797407
 20
19.402231
 42
0.126455
  0
VERTEX
  8
0
 10
287.604167
 20
19.729167
 42
0.296942
  0
VERTEX
  8
0
 10
287.385309
 20
19.775380
 42
0.208169
  0
VERTEX
  8
0
 10
287.200665
 20
19.592839
 42
0.077125
  0
VERTEX
  8
0
 10
287.089945
 20
19.112848
 42
0.028489
  0
SEQEND
  0
POLYLINE
  8
0
 66
1
 70
1
  0
VERTEX
  8
0
 10
289.000000
 20
17.833333
 42
0.112153
  0
VERTEX
  8
0
 10
289.072214
 20
17.515437
 42
0.100145
  0
VERTEX
  8
0
 10
289.276414
 20
17.244792
 42
0.094392
  0
VERTEX
  8
0
 10
289.581686
 20
17.063221
 42
0.087308
  0
VERTEX
  8
0
 10
289.940983
 20
17.000000
 42
0.076861
  0
VERTEX
  8
0
 10
290.339084
 20
17.061561
 42
0.053298
  0
VERTEX
  8
0
 10
290.756842
 20
17.244792
 42
0.052880
  0
VERTEX
  8
0
 10
291.130304
 20
17.514519
 42
0.071639
  0
VERTEX
  8
0
 10
291.396994
 20
17.833333
 42
0.162770
  0
VERTEX
  8
0
 10
291.471218
 20
18.149103
 42
0.190804
  0
VERTEX
  8
0
 10
291.333030
 20
18.421875
 42
0.124167
  0
VERTEX
  8
0
 10
290.976727
 20
18.606344
 42
0.057730
  0
VERTEX
  8
0
 10
290.456011
 20
18.666667
 42
0.055286
  0
VERTEX
  8
0
 10
289.899039
 20
18.604892
 42
0.074868
  0
VERTEX
  8
0
 10
289.427703
 20
18.421875
 42
0.094314
  0
VERTEX
  8
0
 10
289.111542
 20
18.151276
 42
0.170324
  0
SEQEND
  0
POLYLINE
  8
0
 66
1
 70
1
  0
VERTEX
  8
0
 10
55.250000
 20
75.294267
 42
0.023558
  0
VERTEX
  8
0
 10
54.388020
 20
75.085714
 42
0.035130
  0
VERTEX
  8
0
 10
53.660938
 20
74.816411
 42
0.038246
  0
VERTEX
  8
0
 10
53.137189
 20
74.529328
 42
0.253461
  0
VERTEX
  8
0
 10
53.000000
 20
74.276084
 42
0.071128
  0
VERTEX
  8
0
 10
53.147294
 20
73.245899
 42
0.000483
  0
VERTEX
  8
0
 10
55.677881
 20
64.608278
 42
0.000397
  0
VERTEX
  8
0
 10
58.246066
 20
55.899127
 42
0.087920
  0
VERTEX
  8
0
 10
58.628503
 20
55.132896
 42
0.438176
  0
VERTEX
  8
0
 10
59.635672
 20
55.025212
 42
0.021905
  0
VERTEX
  8
0
 10
62.314582
 20
57.587992
 42
0.028766
  0
VERTEX
  8
0
 10
64.920078
 20
60.642518
 42
0.063799
  0
VERTEX
  8
0
 10
66.441431
 20
63.291697
 42
0.108986
  0
VERTEX
  8
0
 10
67.417677
 20
68.757455
 42
0.179407
  0
VERTEX
  8
0
 10
65.630516
 20
73.039248
 42
0.164517
  0
VERTEX
  8
0
 10
61.320877
 20
75.361500
 42
0.089843
  0
SEQEND
  0
POLYLINE
  8
0
 66
1
 70
1
  0
VERTEX
  8
0
 10
62.545575
 20
67.799957
 42
-0.028410
  0
VERTEX
  8
0
 10
62.498170
 20
66.608159
 42
-0.018112
  0
VERTEX
  8
0
 10
62.314445
 20
65.232629
 42
-0.018193
  0
VERTEX
  8
0
 10
62.035261
 20
63.892468
 42
-0.031982
  0
VERTEX
  8
0
 10
61.694749
 20
62.813534
 42
-0.033122
  0
VERTEX
  8
0
 10
61.129650
 20
61.600210
 42
-0.490806
  0
VERTEX
  8
0
 10
60.729070
 20
61.537135
 42
-0.125525
  0
VERTEX
  8
0
 10
60.313131
 20
62.193693
 42
-0.004953
  0
VERTEX
  8
0
 10
59.451487
 20
64.930136
 42
-0.020718
  0
VERTEX
  8
0
 10
58.629750
 20
68.099185
 42
-0.111812
  0
VERTEX
  8
0
 10
58.648166
 20
69.867066
 42
-0.257896
  0
VERTEX
  8
0
 10
59.398244
 20
70.691995
 42
-0.130299
  0
VERTEX
  8
0
 10
60.843237
 20
70.791791
 42
-0.120955
  0
VERTEX
  8
0
 10
61.534702
 20
70.473896
 42
-0.095746
  0
VERTEX
  8
0
 10
62.071617
 20
69.846979
 42
-0.077386
  0
VERTEX
  8
0
 10
62.416769
 20
68.937863
 42
-0.047870
  0
SEQEND
  0
POLYLINE
  8
0
 66
1
 70
1
  0
VERTEX
  8
0
 10
163.072129
 20
79.905606
 42
0.117566
  0
VERTEX
  8
0
 10
159.139228
 20
78.041076
 42
0.132001
  0
VERTEX
  8
0
 10
156.672043
 20
74.668270
 42
0.125640
  0
VERTEX
  8
0
 10
156.158312
 20
70.375091
 42
0.101014
  0
VERTEX
  8
0
 10
157.679929
 20
65.964691
 42
0.000000
  0
VERTEX
  8
0
 10
159.359858
 20
63.120798
 42
0.000000
  0
VERTEX
  8
0
 10
163.929929
 20
68.238363
 42
-0.001263
  0
VERTEX
  8
0
 10
165.812839
 20
70.336151
 42
-0.001294
  0
VERTEX
  8
0
 10
167.691260
 20
72.407522
 42
-0.001253
  0
VERTEX
  8
0
 10
169.330810
 20
74.197080
 42
-0.005444
  0
VERTEX
  8
0
 10
170.316912
 20
75.244876
 42
0.183290
  0
VERTEX
  8
0
 10
171.272826
 20
77.484522
 42
0.266017
  0
VERTEX
  8
0
 10
170.305306
 20
79.346866
 42
0.136333
  0
VERTEX
  8
0
 10
167.284440
 20
80.283550
 42
0.059650
  0
SEQEND
  0
POLYLINE
  8
0
 66
1
 70
1
  0
VERTEX
  8
0
 10
166.299690
 20
75.647481
 42
-0.035967
  0
VERTEX
  8
0
 10
164.965940
 20
73.722299
 42
-0.011069
  0
VERTEX
  8
0
 10
162.689154
 20
71.018721
 42
-0.004786
  0
VERTEX
  8
0
 10
160.249705
 20
68.301705
 42
-0.210427
  0
VERTEX
  8
0
 10
159.564560
 20
68.000000
 42
-0.397417
  0
VERTEX
  8
0
 10
159.065217
 20
68.471338
 42
-0.021971
  0
VERTEX
  8
0
 10
159.032941
 20
70.818361
 42
-0.027964
  0
VERTEX
  8
0
 10
159.241862
 20
73.238950
 42
-0.107110
  0
VERTEX
  8
0
 10
159.765313
 20
74.649185
 42
-0.114071
  0
VERTEX
  8
0
 10
160.445567
 20
75.315186
 42
-0.055276
  0
VERTEX
  8
0
 10
161.554711
 20
75.833576
 42
-0.031847
  0
VERTEX
  8
0
 10
163.321035
 20
76.309320
 42
-0.007688
  0
VERTEX
  8
0
 10
166.299690
 20
76.863818
 42
-0.235130
  0
VERTEX
  8
0
 10
166.529415
 20
76.794465
 42
-0.206808
  0
VERTEX
  8
0
 10
166.629562
 20
76.562694
 42
-0.095808
  0
VERTEX
  8
0
 10
166.551254
 20
76.157771
 42
-0.037994
  0
SEQEND
  0
POLYLINE
  8
0
 66
1
 70
1
  0
VERTEX
  8
0
 10
238.000000
 20
67.000000
 42
0.105006
  0
VERTEX
  8
0
 10
236.722627
 20
65.033858
 42
0.065775
  0
VERTEX
  8
0
 10
236.079886
 20
62.355827
 42
0.064048
  0
VERTEX
  8
0
 10
236.147273
 20
59.516781
 42
0.085141
  0
VERTEX
  8
0
 10
236.961783
 20
57.071409
 42
0.151467
  0
VERTEX
  8
0
 10
239.413080
 20
54.652487
 42
0.091979
  0
VERTEX
  8
0
 10
243.343075
 20
53.459756
 42
0.089943
  0
VERTEX
  8
0
 10
247.523214
 20
53.745225
 42
0.135268
  0
VERTEX
  8
0
 10
250.682012
 20
55.539155
 42
0.109269
  0
VERTEX
  8
0
 10
251.949248
 20
57.526164
 42
0.049954
  0
VERTEX
  8
0
 10
252.715080
 20
60.522629
 42
0.054735
  0
VERTEX
  8
0
 10
252.824856
 20
63.196204
 42
0.394341
  0
VERTEX
  8
0
 10
251.964176
 20
64.000000
 42
0.050290
  0
VERTEX
  8
0
 10
251.511065
 20
63.954310
 42
0.150788
  0
VERTEX
  8
0
 10
251.241095
 20
63.806715
 42
0.260051
  0
VERTEX
  8
0
 10
251.183255
 20
63.591311
 42
0.135545
  0
VERTEX
  8
0
 10
251.324657
 20
63.342009
 42
-0.310497
  0
VERTEX
  8
0
 10
251.518944
 20
62.293849
 42
-0.140958
  0
VERTEX
  8
0
 10
250.576691
 20
61.172691
 42
-0.083494
  0
VERTEX
  8
0
 10
248.645336
 20
60.298099
 42
-0.064743
  0
VERTEX
  8
0
 10
246.352804
 20
60.000000
 42
-0.033407
  0
VERTEX
  8
0
 10
244.544905
 20
60.120927
 42
-0.105042
  0
VERTEX
  8
0
 10
243.405632
 20
60.527644
 42
-0.117299
  0
VERTEX
  8
0
 10
242.601309
 20
61.332523
 42
-0.047085
  0
VERTEX
  8
0
 10
241.909640
 20
62.737664
 42
-0.033714
  0
VERTEX
  8
0
 10
241.440901
 20
64.275168
 42
-0.119488
  0
VERTEX
  8
0
 10
241.450456
 20
65.298990
 42
-0.123888
  0
VERTEX
  8
0
 10
241.926637
 20
66.183839
 42
-0.037497
  0
VERTEX
  8
0
 10
243.045175
 20
67.237664
 42
0.000000
  0
VERTEX
  8
0
 10
245.221568
 20
69.000000
 42
0.000000
  0
VERTEX
  8
0
 10
242.610784
 20
69.000000
 42
0.063294
  0
VERTEX
  8
0
 10
241.465062
 20
68.854382
 42
0.039128
  0
VERTEX
  8
0
 10
240.179418
 20
68.412500
 42
0.038730
  0
VERTEX
  8
0
 10
238.957127
 20
67.765727
 42
0.055377
  0
SEQEND
  0
POLYLINE
  8
0
 66
1
 70
1
  0
VERTEX
  8
0
 10
89.152704
 20
62.475038
 42
0.029600
  0
VERTEX
  8
0
 10
87.632589
 20
61.034032
 42
0.082036
  0
VERTEX
  8
0
 10
86.816468
 20
59.813073
 42
0.092462
  0
VERTEX
  8
0
 10
86.489527
 20
58.483492
 42
0.044664
  0
VERTEX
  8
0
 10
86.546790
 20
56.725038
 42
0.182772
  0
VERTEX
  8
0
 10
89.362633
 20
51.360588
 42
0.177361
  0
VERTEX
  8
0
 10
95.064171
 20
49.117652
 42
0.181078
  0
VERTEX
  8
0
 10
100.777551
 20
51.103717
 42
0.188179
  0
VERTEX
  8
0
 10
103.667073
 20
56.318788
 42
0.041702
  0
VERTEX
  8
0
 10
103.788387
 20
58.714258
 42
0.205833
  0
VERTEX
  8
0
 10
103.226956
 20
59.910687
 42
0.473938
  0
VERTEX
  8
0
 10
102.439215
 20
59.784278
 42
0.067789
  0
VERTEX
  8
0
 10
101.722159
 20
58.045538
 42
-0.099746
  0
VERTEX
  8
0
 10
101.332629
 20
57.248556
 42
-0.056285
  0
VERTEX
  8
0
 10
100.583982
 20
56.470132
 42
-0.052972
  0
VERTEX
  8
0
 10
99.615143
 20
55.826201
 42
-0.058780
  0
VERTEX
  8
0
 10
98.565233
 20
55.427017
 42
-0.174716
  0
VERTEX
  8
0
 10
95.136419
 20
55.771166
 42
-0.163420
  0
VERTEX
  8
0
 10
92.600767
 20
58.229660
 42
-0.190250
  0
VERTEX
  8
0
 10
92.276982
 20
61.428877
 42
-0.214785
  0
VERTEX
  8
0
 10
94.250000
 20
63.779505
 42
0.000000
  0
VERTEX
  8
0
 10
96.500000
 20
64.864639
 42
0.000000
  0
VERTEX
  8
0
 10
94.326725
 20
64.932320
 42
0.086287
  0
VERTEX
  8
0
 10
93.283953
 20
64.784290
 42
0.032568
  0
VERTEX
  8
0
 10
91.910381
 20
64.238411
 42
0.031077
  0
VERTEX
  8
0
 10
90.461296
 20
63.436350
 42
0.032974
  0
SEQEND
  0
ENDSEC
  0
EOF
